<svg width="67" height="85" viewBox="0 0 67 85" fill="none" xmlns="http://www.w3.org/2000/svg">
<path d="M25.5077 10.8754C24.5603 9.55864 24.4814 6.72144 24.5603 5.46742C22.855 4.52691 22.1918 2.17564 23.6129 1H45.6404C47.3457 2.31671 45.4035 4.52691 44.6929 5.46742C44.8824 7.91275 43.9824 10.0916 43.5087 10.8754V32.272C44.9298 37.2096 48.8616 48.3076 53.2197 53.1983C57.5778 58.089 62.7728 61.6629 64.8256 62.8385C66.9099 65.0957 65.773 68.7167 64.8256 70.3626L62.2202 73.6544C57.3672 79.2974 46.1614 84 34.9819 84C23.8024 84 14.6914 80.865 11.5334 79.2974C9.79641 78.0434 6.32263 76.4759 2.53287 70.3626C-0.168637 66.0048 1.26965 63.6223 2.53287 62.8385C2.92763 62.4466 5.8962 59.97 14.6124 53.1983C23.3287 46.4266 25.5077 36.4259 25.5077 32.272V10.8754Z" stroke="white" stroke-width="2"/>
</svg>
