<svg width="26" height="26" viewBox="0 0 26 26" fill="none" xmlns="http://www.w3.org/2000/svg">
<path d="M12.9999 8.83472C10.7062 8.83472 8.83428 10.7066 8.83428 13.0003C8.83428 15.2941 10.7062 17.166 12.9999 17.166C15.2937 17.166 17.1655 15.2941 17.1655 13.0003C17.1655 10.7066 15.2937 8.83472 12.9999 8.83472ZM25.4937 13.0003C25.4937 11.2753 25.5093 9.56597 25.4124 7.84409C25.3155 5.84409 24.8593 4.06909 23.3968 2.60659C21.9312 1.14097 20.1593 0.687844 18.1593 0.590969C16.4343 0.494094 14.7249 0.509719 13.003 0.509719C11.278 0.509719 9.56866 0.494094 7.84678 0.590969C5.84678 0.687844 4.07178 1.14409 2.60928 2.60659C1.14365 4.07222 0.690529 5.84409 0.593654 7.84409C0.496779 9.56909 0.512404 11.2785 0.512404 13.0003C0.512404 14.7222 0.496779 16.4347 0.593654 18.1566C0.690529 20.1566 1.14678 21.9316 2.60928 23.3941C4.0749 24.8597 5.84678 25.3128 7.84678 25.4097C9.57178 25.5066 11.2812 25.491 13.003 25.491C14.728 25.491 16.4374 25.5066 18.1593 25.4097C20.1593 25.3128 21.9343 24.8566 23.3968 23.3941C24.8624 21.9285 25.3155 20.1566 25.4124 18.1566C25.5124 16.4347 25.4937 14.7253 25.4937 13.0003ZM12.9999 19.4097C9.45303 19.4097 6.59053 16.5472 6.59053 13.0003C6.59053 9.45347 9.45303 6.59097 12.9999 6.59097C16.5468 6.59097 19.4093 9.45347 19.4093 13.0003C19.4093 16.5472 16.5468 19.4097 12.9999 19.4097ZM19.6718 7.82534C18.8437 7.82534 18.1749 7.15659 18.1749 6.32847C18.1749 5.50034 18.8437 4.83159 19.6718 4.83159C20.4999 4.83159 21.1687 5.50034 21.1687 6.32847C21.1689 6.52511 21.1304 6.71987 21.0552 6.90159C20.9801 7.08331 20.8698 7.24842 20.7308 7.38747C20.5917 7.52652 20.4266 7.63677 20.2449 7.7119C20.0632 7.78704 19.8684 7.82559 19.6718 7.82534Z" fill="white"/>
</svg>
