<svg width="414" height="41" viewBox="0 0 414 41" fill="none" xmlns="http://www.w3.org/2000/svg">
<rect x="116" width="182" height="41" fill="#141414"/>
<g filter="url(#filter0_i)">
<path d="M133.344 28C133.021 28 132.75 27.89 132.53 27.67C132.31 27.45 132.2 27.1787 132.2 26.856V11.962C132.2 11.6247 132.31 11.3533 132.53 11.148C132.75 10.928 133.021 10.818 133.344 10.818H145.048C145.385 10.818 145.657 10.928 145.862 11.148C146.082 11.3533 146.192 11.6247 146.192 11.962V26.856C146.192 27.1787 146.082 27.45 145.862 27.67C145.657 27.89 145.385 28 145.048 28C144.725 28 144.454 27.89 144.234 27.67C144.014 27.45 143.904 27.1787 143.904 26.856V12.842H134.488V26.856C134.488 27.1787 134.378 27.45 134.158 27.67C133.953 27.89 133.681 28 133.344 28ZM151.735 28C151.412 28 151.141 27.89 150.921 27.67C150.701 27.45 150.591 27.1787 150.591 26.856V11.962C150.591 11.6247 150.701 11.3533 150.921 11.148C151.141 10.928 151.412 10.818 151.735 10.818H156.135C157.235 10.818 158.21 11.06 159.061 11.544C159.911 12.028 160.571 12.7027 161.041 13.568C161.525 14.4187 161.767 15.4013 161.767 16.516C161.767 17.5867 161.525 18.54 161.041 19.376C160.571 20.212 159.911 20.8647 159.061 21.334C158.21 21.8033 157.235 22.038 156.135 22.038H152.879V26.856C152.879 27.1787 152.769 27.45 152.549 27.67C152.343 27.89 152.072 28 151.735 28ZM152.879 19.926H156.135C157.132 19.926 157.953 19.6107 158.599 18.98C159.244 18.3347 159.567 17.5133 159.567 16.516C159.567 15.812 159.42 15.196 159.127 14.668C158.833 14.1253 158.43 13.7 157.917 13.392C157.403 13.084 156.809 12.93 156.135 12.93H152.879V19.926ZM172.24 28.22C170.949 28.22 169.768 28.0073 168.698 27.582C167.627 27.142 166.703 26.5333 165.926 25.756C165.163 24.964 164.569 24.0327 164.144 22.962C163.718 21.8767 163.506 20.6887 163.506 19.398C163.506 18.1073 163.718 16.9267 164.144 15.856C164.569 14.7853 165.163 13.8613 165.926 13.084C166.703 12.292 167.627 11.6833 168.698 11.258C169.768 10.818 170.949 10.598 172.24 10.598C173.53 10.598 174.704 10.818 175.76 11.258C176.83 11.6833 177.754 12.292 178.532 13.084C179.309 13.8613 179.91 14.7853 180.336 15.856C180.761 16.9267 180.974 18.1073 180.974 19.398C180.974 20.6887 180.761 21.8767 180.336 22.962C179.91 24.0327 179.309 24.964 178.532 25.756C177.754 26.5333 176.83 27.142 175.76 27.582C174.704 28.0073 173.53 28.22 172.24 28.22ZM172.24 26.152C173.516 26.152 174.645 25.8587 175.628 25.272C176.61 24.6707 177.38 23.864 177.938 22.852C178.495 21.8253 178.774 20.674 178.774 19.398C178.774 18.122 178.495 16.978 177.938 15.966C177.38 14.9393 176.61 14.1327 175.628 13.546C174.645 12.9593 173.516 12.666 172.24 12.666C170.964 12.666 169.834 12.9593 168.852 13.546C167.869 14.1327 167.099 14.9393 166.542 15.966C165.984 16.978 165.706 18.122 165.706 19.398C165.706 20.674 165.984 21.8253 166.542 22.852C167.099 23.864 167.869 24.6707 168.852 25.272C169.834 25.8587 170.964 26.152 172.24 26.152ZM185.701 28C185.379 28 185.107 27.89 184.887 27.67C184.667 27.45 184.557 27.1787 184.557 26.856V11.962C184.557 11.6247 184.667 11.3533 184.887 11.148C185.107 10.928 185.379 10.818 185.701 10.818H194.787C195.125 10.818 195.396 10.9207 195.601 11.126C195.807 11.3167 195.909 11.5733 195.909 11.896C195.909 12.204 195.807 12.4533 195.601 12.644C195.396 12.8347 195.125 12.93 194.787 12.93H186.845V26.856C186.845 27.1787 186.735 27.45 186.515 27.67C186.295 27.89 186.024 28 185.701 28ZM199.473 28C199.15 28 198.879 27.89 198.659 27.67C198.439 27.45 198.329 27.1787 198.329 26.856V11.962C198.329 11.6247 198.439 11.3533 198.659 11.148C198.879 10.928 199.15 10.818 199.473 10.818H203.873C204.973 10.818 205.948 11.06 206.799 11.544C207.65 12.028 208.31 12.7027 208.779 13.568C209.263 14.4187 209.505 15.4013 209.505 16.516C209.505 17.5867 209.263 18.54 208.779 19.376C208.31 20.212 207.65 20.8647 206.799 21.334C205.948 21.8033 204.973 22.038 203.873 22.038H200.617V26.856C200.617 27.1787 200.507 27.45 200.287 27.67C200.082 27.89 199.81 28 199.473 28ZM200.617 19.926H203.873C204.87 19.926 205.692 19.6107 206.337 18.98C206.982 18.3347 207.305 17.5133 207.305 16.516C207.305 15.812 207.158 15.196 206.865 14.668C206.572 14.1253 206.168 13.7 205.655 13.392C205.142 13.084 204.548 12.93 203.873 12.93H200.617V19.926ZM210.688 28C210.277 28 209.962 27.824 209.742 27.472C209.522 27.12 209.5 26.746 209.676 26.35L215.858 11.588C216.078 11.0747 216.437 10.818 216.936 10.818C217.464 10.818 217.823 11.0747 218.014 11.588L224.218 26.394C224.379 26.8047 224.35 27.1787 224.13 27.516C223.925 27.8387 223.609 28 223.184 28C222.964 28 222.751 27.9413 222.546 27.824C222.355 27.692 222.216 27.516 222.128 27.296L220.896 24.216H212.998L211.744 27.296C211.641 27.5307 211.487 27.7067 211.282 27.824C211.091 27.9413 210.893 28 210.688 28ZM213.768 22.324H220.126L216.98 14.492L213.768 22.324ZM227.983 28C227.66 28 227.389 27.89 227.169 27.67C226.949 27.45 226.839 27.1787 226.839 26.856V11.962C226.839 11.6247 226.949 11.3533 227.169 11.148C227.389 10.928 227.66 10.818 227.983 10.818C228.423 10.818 228.76 11.0233 228.995 11.434L235.529 24.524L241.887 11.434C242.121 11.0233 242.459 10.818 242.899 10.818C243.221 10.818 243.493 10.928 243.713 11.148C243.933 11.3533 244.043 11.6247 244.043 11.962V26.856C244.043 27.1787 243.925 27.45 243.691 27.67C243.471 27.89 243.207 28 242.899 28C242.576 28 242.305 27.89 242.085 27.67C241.865 27.45 241.755 27.1787 241.755 26.856V15.922L236.431 26.768C236.181 27.1493 235.851 27.34 235.441 27.34C234.957 27.34 234.605 27.1127 234.385 26.658L229.127 16.12V26.856C229.127 27.1787 229.017 27.45 228.797 27.67C228.577 27.89 228.305 28 227.983 28ZM249.596 28C249.273 28 249.002 27.89 248.782 27.67C248.562 27.45 248.452 27.1787 248.452 26.856V11.962C248.452 11.6247 248.562 11.3533 248.782 11.148C249.002 10.928 249.273 10.818 249.596 10.818C250.036 10.818 250.373 11.0233 250.608 11.434L257.142 24.524L263.5 11.434C263.735 11.0233 264.072 10.818 264.512 10.818C264.835 10.818 265.106 10.928 265.326 11.148C265.546 11.3533 265.656 11.6247 265.656 11.962V26.856C265.656 27.1787 265.539 27.45 265.304 27.67C265.084 27.89 264.82 28 264.512 28C264.189 28 263.918 27.89 263.698 27.67C263.478 27.45 263.368 27.1787 263.368 26.856V15.922L258.044 26.768C257.795 27.1493 257.465 27.34 257.054 27.34C256.57 27.34 256.218 27.1127 255.998 26.658L250.74 16.12V26.856C250.74 27.1787 250.63 27.45 250.41 27.67C250.19 27.89 249.919 28 249.596 28ZM269.383 28C268.973 28 268.657 27.824 268.437 27.472C268.217 27.12 268.195 26.746 268.371 26.35L274.553 11.588C274.773 11.0747 275.133 10.818 275.631 10.818C276.159 10.818 276.519 11.0747 276.709 11.588L282.913 26.394C283.075 26.8047 283.045 27.1787 282.825 27.516C282.62 27.8387 282.305 28 281.879 28C281.659 28 281.447 27.9413 281.241 27.824C281.051 27.692 280.911 27.516 280.823 27.296L279.591 24.216H271.693L270.439 27.296C270.337 27.5307 270.183 27.7067 269.977 27.824C269.787 27.9413 269.589 28 269.383 28ZM272.463 22.324H278.821L275.675 14.492L272.463 22.324Z" fill="white"/>
</g>
<circle cx="116" cy="21" r="14" fill="white"/>
<circle cx="298" cy="21" r="14" fill="white"/>
<g filter="url(#filter1_d)">
<circle cx="116" cy="21" r="10" fill="#141414"/>
</g>
<g filter="url(#filter2_d)">
<circle cx="298" cy="21" r="10" fill="#141414"/>
</g>
<rect x="-5" y="19" width="107" height="4" fill="#141414"/>
<rect x="312" y="19" width="107" height="4" fill="#141414"/>
<defs>
<filter id="filter0_i" x="132.2" y="10.5979" width="150.816" height="21.622" filterUnits="userSpaceOnUse" color-interpolation-filters="sRGB">
<feFlood flood-opacity="0" result="BackgroundImageFix"/>
<feBlend mode="normal" in="SourceGraphic" in2="BackgroundImageFix" result="shape"/>
<feColorMatrix in="SourceAlpha" type="matrix" values="0 0 0 0 0 0 0 0 0 0 0 0 0 0 0 0 0 0 127 0" result="hardAlpha"/>
<feOffset dy="4"/>
<feGaussianBlur stdDeviation="2"/>
<feComposite in2="hardAlpha" operator="arithmetic" k2="-1" k3="1"/>
<feColorMatrix type="matrix" values="0 0 0 0 0 0 0 0 0 0 0 0 0 0 0 0 0 0 0.25 0"/>
<feBlend mode="normal" in2="shape" result="effect1_innerShadow"/>
</filter>
<filter id="filter1_d" x="96" y="1" width="40" height="40" filterUnits="userSpaceOnUse" color-interpolation-filters="sRGB">
<feFlood flood-opacity="0" result="BackgroundImageFix"/>
<feColorMatrix in="SourceAlpha" type="matrix" values="0 0 0 0 0 0 0 0 0 0 0 0 0 0 0 0 0 0 127 0"/>
<feOffset/>
<feGaussianBlur stdDeviation="5"/>
<feColorMatrix type="matrix" values="0 0 0 0 0 0 0 0 0 0.64 0 0 0 0 1 0 0 0 1 0"/>
<feBlend mode="normal" in2="BackgroundImageFix" result="effect1_dropShadow"/>
<feBlend mode="normal" in="SourceGraphic" in2="effect1_dropShadow" result="shape"/>
</filter>
<filter id="filter2_d" x="278" y="1" width="40" height="40" filterUnits="userSpaceOnUse" color-interpolation-filters="sRGB">
<feFlood flood-opacity="0" result="BackgroundImageFix"/>
<feColorMatrix in="SourceAlpha" type="matrix" values="0 0 0 0 0 0 0 0 0 0 0 0 0 0 0 0 0 0 127 0"/>
<feOffset/>
<feGaussianBlur stdDeviation="5"/>
<feColorMatrix type="matrix" values="0 0 0 0 0 0 0 0 0 0.64 0 0 0 0 1 0 0 0 1 0"/>
<feBlend mode="normal" in2="BackgroundImageFix" result="effect1_dropShadow"/>
<feBlend mode="normal" in="SourceGraphic" in2="effect1_dropShadow" result="shape"/>
</filter>
</defs>
</svg>
