<svg width="23" height="43" viewBox="0 0 23 43" fill="none" xmlns="http://www.w3.org/2000/svg">
<path d="M9 34L7 42H16L14 34H9Z" fill="#DB2525" stroke="white" stroke-width="2"/>
<path d="M5.76341 21.7273C3.37534 20.5927 2.93141 18.103 3.00795 17H20C19.9235 18.5758 19.0815 20.7818 17.2445 21.7273C15.4372 22.6575 14.7187 27.2424 14.7187 30H8.51889C8.59543 27.7152 8.15148 22.8618 5.76341 21.7273Z" fill="#DB2525" stroke="white" stroke-width="2"/>
<path d="M4.34568 9L2 13H21L18.4198 9H4.34568Z" fill="#DB2525" stroke="white" stroke-width="2"/>
<rect x="8.28427" y="4.71917" width="2.72193" height="2.72193" transform="rotate(43.5324 8.28427 4.71917)" fill="#DB2525" stroke="white" stroke-width="2"/>
<rect x="10" y="1" width="3" height="3" fill="#DB2525" stroke="white" stroke-width="2"/>
<rect x="15.3673" y="4.55389" width="2.72193" height="2.72193" transform="rotate(43.5324 15.3673 4.55389)" fill="#DB2525" stroke="white" stroke-width="2"/>
</svg>
