<svg width="364" height="318" viewBox="0 0 364 318" fill="none" xmlns="http://www.w3.org/2000/svg">
<g filter="url(#filter0_d)">
<circle cx="24" cy="24" r="7" fill="#00A3FF"/>
</g>
<circle cx="24" cy="46" r="7" fill="white"/>
<circle cx="24" cy="68" r="7" fill="white"/>
<circle cx="24" cy="90" r="7" fill="white"/>
<path d="M24.3 37.34C22.464 37.34 20.7413 37 19.132 36.32C17.5453 35.6173 16.1513 34.654 14.95 33.43C13.7713 32.1833 12.842 30.7327 12.162 29.078C11.5047 27.4233 11.176 25.6327 11.176 23.706C11.176 21.802 11.5047 20.034 12.162 18.402C12.842 16.7473 13.7713 15.308 14.95 14.084C16.1513 12.8373 17.5453 11.8627 19.132 11.16C20.7187 10.4573 22.4413 10.106 24.3 10.106C26.0453 10.106 27.5413 10.3327 28.788 10.786C30.0573 11.2393 31.3267 11.9873 32.596 13.03C32.868 13.2567 33.0493 13.472 33.14 13.676C33.2307 13.88 33.276 14.1293 33.276 14.424C33.276 14.8547 33.1173 15.2173 32.8 15.512C32.5053 15.784 32.1427 15.9427 31.712 15.988C31.2813 16.0107 30.862 15.8633 30.454 15.546C29.6153 14.8207 28.7427 14.2653 27.836 13.88C26.952 13.4947 25.7733 13.302 24.3 13.302C22.9627 13.302 21.7047 13.574 20.526 14.118C19.3473 14.662 18.3047 15.41 17.398 16.362C16.514 17.314 15.8227 18.4247 15.324 19.694C14.8253 20.9407 14.576 22.278 14.576 23.706C14.576 25.1567 14.8253 26.5167 15.324 27.786C15.8227 29.0327 16.514 30.132 17.398 31.084C18.3047 32.036 19.3473 32.784 20.526 33.328C21.7047 33.8493 22.9627 34.11 24.3 34.11C25.456 34.11 26.544 33.9173 27.564 33.532C28.6067 33.124 29.604 32.5687 30.556 31.866C30.964 31.5713 31.3607 31.4467 31.746 31.492C32.154 31.5147 32.494 31.6733 32.766 31.968C33.038 32.24 33.174 32.6253 33.174 33.124C33.174 33.6 32.9927 34.0193 32.63 34.382C30.182 36.354 27.4053 37.34 24.3 37.34ZM45.5604 37.136C43.7244 37.136 42.1037 36.7393 40.6984 35.946C39.293 35.13 38.1824 34.0193 37.3664 32.614C36.573 31.186 36.1764 29.554 36.1764 27.718C36.1764 25.8593 36.573 24.2273 37.3664 22.822C38.1824 21.394 39.293 20.2833 40.6984 19.49C42.1037 18.674 43.7244 18.266 45.5604 18.266C47.3737 18.266 48.983 18.674 50.3884 19.49C51.7937 20.2833 52.893 21.394 53.6864 22.822C54.5024 24.2273 54.9104 25.8593 54.9104 27.718C54.9104 29.554 54.5137 31.186 53.7204 32.614C52.927 34.0193 51.8277 35.13 50.4224 35.946C49.017 36.7393 47.3964 37.136 45.5604 37.136ZM45.5604 34.076C46.739 34.076 47.7817 33.804 48.6884 33.26C49.595 32.716 50.2977 31.968 50.7964 31.016C51.3177 30.064 51.5784 28.9647 51.5784 27.718C51.5784 26.4713 51.3177 25.372 50.7964 24.42C50.2977 23.4453 49.595 22.686 48.6884 22.142C47.7817 21.598 46.739 21.326 45.5604 21.326C44.3817 21.326 43.339 21.598 42.4324 22.142C41.5257 22.686 40.8117 23.4453 40.2904 24.42C39.769 25.372 39.5084 26.4713 39.5084 27.718C39.5084 28.9647 39.769 30.064 40.2904 31.016C40.8117 31.968 41.5257 32.716 42.4324 33.26C43.339 33.804 44.3817 34.076 45.5604 34.076ZM66.4297 37.272C64.7977 37.272 63.3471 37.0227 62.0777 36.524C60.8311 36.0253 59.8111 35.4133 59.0177 34.688C58.6551 34.348 58.4737 33.9513 58.4737 33.498C58.4737 33.022 58.6664 32.6367 59.0517 32.342C59.3917 32.07 59.7997 31.9567 60.2757 32.002C60.7744 32.0247 61.1937 32.1947 61.5337 32.512C62.0777 32.988 62.7577 33.396 63.5737 33.736C64.3897 34.0533 65.3304 34.212 66.3957 34.212C67.6424 34.212 68.6284 33.9513 69.3537 33.43C70.1017 32.886 70.4757 32.1947 70.4757 31.356C70.4757 30.608 70.2037 30.0187 69.6597 29.588C69.1384 29.1347 68.4811 28.8967 67.6877 28.874H65.7497C65.2511 28.874 64.8317 28.738 64.4917 28.466C64.1517 28.194 63.9817 27.8653 63.9817 27.48C63.9817 27.0947 64.1517 26.7773 64.4917 26.528C64.8317 26.2787 65.2511 26.154 65.7497 26.154H67.6537C68.4017 26.1087 68.9571 25.8593 69.3197 25.406C69.7051 24.9527 69.8977 24.386 69.8977 23.706C69.8977 22.958 69.5804 22.3687 68.9457 21.938C68.3111 21.5073 67.3931 21.292 66.1917 21.292C64.1744 21.292 62.6331 21.8247 61.5677 22.89C61.2051 23.2527 60.8084 23.4567 60.3777 23.502C59.9697 23.5247 59.5731 23.3887 59.1877 23.094C58.8931 22.8673 58.7571 22.5387 58.7797 22.108C58.8251 21.6773 59.0177 21.2807 59.3577 20.918C60.0831 20.1247 61.0577 19.4787 62.2817 18.98C63.5057 18.4813 64.7864 18.232 66.1237 18.232C67.5064 18.232 68.7304 18.47 69.7957 18.946C70.8611 19.422 71.6997 20.0567 72.3117 20.85C72.9237 21.6433 73.2297 22.516 73.2297 23.468C73.2297 24.4653 72.9124 25.304 72.2777 25.984C71.6431 26.6413 70.8611 27.0833 69.9317 27.31C71.0651 27.5367 71.9944 28.0353 72.7197 28.806C73.4451 29.5767 73.8077 30.4833 73.8077 31.526C73.8077 32.614 73.4791 33.5887 72.8217 34.45C72.1871 35.3113 71.3144 36.0027 70.2037 36.524C69.0931 37.0227 67.8351 37.272 66.4297 37.272ZM85.8198 37.136C84.1198 37.136 82.6125 36.7393 81.2978 35.946C80.0058 35.13 78.9858 34.0193 78.2378 32.614C77.4898 31.186 77.1158 29.554 77.1158 27.718C77.1158 25.8593 77.5125 24.2273 78.3058 22.822C79.1218 21.394 80.2325 20.2833 81.6378 19.49C83.0431 18.674 84.6638 18.266 86.4998 18.266C88.3131 18.266 89.9225 18.674 91.3278 19.49C92.7331 20.2833 93.8325 21.394 94.6258 22.822C95.4418 24.2273 95.8498 25.8593 95.8498 27.718V35.062C95.8498 36.8527 95.4531 38.4733 94.6598 39.924C93.8665 41.3973 92.7558 42.5647 91.3278 43.426C89.9225 44.2873 88.2905 44.718 86.4318 44.718C84.8225 44.718 83.3151 44.4007 81.9098 43.766C80.5045 43.1313 79.3145 42.202 78.3398 40.978C78.0451 40.5927 77.9318 40.196 77.9998 39.788C78.0905 39.38 78.3171 39.0513 78.6798 38.802C79.0878 38.53 79.5071 38.4393 79.9378 38.53C80.3911 38.6207 80.7538 38.8473 81.0258 39.21C81.6378 39.9807 82.4085 40.5813 83.3378 41.012C84.2671 41.4427 85.3211 41.658 86.4998 41.658C87.5878 41.658 88.5851 41.3973 89.4918 40.876C90.4211 40.3547 91.1578 39.584 91.7018 38.564C92.2458 37.544 92.5178 36.2973 92.5178 34.824V33.158C91.8151 34.382 90.8858 35.3567 89.7298 36.082C88.5738 36.7847 87.2705 37.136 85.8198 37.136ZM86.4998 34.076C87.6785 34.076 88.7211 33.804 89.6278 33.26C90.5345 32.716 91.2371 31.968 91.7358 31.016C92.2571 30.064 92.5178 28.9647 92.5178 27.718C92.5178 26.4713 92.2571 25.372 91.7358 24.42C91.2371 23.4453 90.5345 22.686 89.6278 22.142C88.7211 21.598 87.6785 21.326 86.4998 21.326C85.3211 21.326 84.2785 21.598 83.3718 22.142C82.4651 22.686 81.7511 23.4453 81.2298 24.42C80.7085 25.372 80.4478 26.4713 80.4478 27.718C80.4478 28.9647 80.7085 30.064 81.2298 31.016C81.7511 31.968 82.4651 32.716 83.3718 33.26C84.2785 33.804 85.3211 34.076 86.4998 34.076ZM108.763 37.136C107.109 37.136 105.624 36.728 104.309 35.912C102.995 35.0733 101.952 33.9513 101.181 32.546C100.433 31.118 100.059 29.5087 100.059 27.718C100.059 25.9273 100.467 24.318 101.283 22.89C102.122 21.462 103.244 20.34 104.649 19.524C106.077 18.6853 107.675 18.266 109.443 18.266C111.211 18.266 112.798 18.6853 114.203 19.524C115.609 20.34 116.719 21.462 117.535 22.89C118.374 24.318 118.793 25.9273 118.793 27.718V35.3C118.793 35.7987 118.623 36.218 118.283 36.558C117.966 36.8753 117.558 37.034 117.059 37.034C116.561 37.034 116.141 36.8753 115.801 36.558C115.484 36.218 115.325 35.7987 115.325 35.3V34.042C114.532 34.994 113.569 35.7533 112.435 36.32C111.325 36.864 110.101 37.136 108.763 37.136ZM109.443 34.076C110.599 34.076 111.631 33.804 112.537 33.26C113.444 32.6933 114.158 31.934 114.679 30.982C115.201 30.0073 115.461 28.9193 115.461 27.718C115.461 26.494 115.201 25.406 114.679 24.454C114.158 23.4793 113.444 22.72 112.537 22.176C111.631 21.6093 110.599 21.326 109.443 21.326C108.31 21.326 107.279 21.6093 106.349 22.176C105.443 22.72 104.717 23.4793 104.173 24.454C103.652 25.406 103.391 26.494 103.391 27.718C103.391 28.9193 103.652 30.0073 104.173 30.982C104.717 31.934 105.443 32.6933 106.349 33.26C107.279 33.804 108.31 34.076 109.443 34.076ZM125.689 37.034C125.19 37.034 124.771 36.8753 124.431 36.558C124.113 36.218 123.955 35.7987 123.955 35.3V20.17C123.955 19.6487 124.113 19.2293 124.431 18.912C124.771 18.5947 125.19 18.436 125.689 18.436C126.21 18.436 126.629 18.5947 126.947 18.912C127.264 19.2293 127.423 19.626 127.423 20.102C128.012 19.5127 128.715 19.0593 129.531 18.742C130.347 18.402 131.231 18.232 132.183 18.232C134.563 18.232 136.353 19.1273 137.555 20.918C138.212 20.0793 139.051 19.422 140.071 18.946C141.091 18.47 142.235 18.232 143.505 18.232C145.454 18.232 147.041 18.8667 148.265 20.136C149.489 21.4053 150.101 23.2187 150.101 25.576V35.3C150.101 35.7987 149.942 36.218 149.625 36.558C149.307 36.8753 148.888 37.034 148.367 37.034C147.868 37.034 147.449 36.8753 147.109 36.558C146.791 36.218 146.633 35.7987 146.633 35.3V25.576C146.633 24.148 146.281 23.094 145.579 22.414C144.876 21.7113 143.958 21.36 142.825 21.36C141.646 21.36 140.671 21.768 139.901 22.584C139.153 23.4 138.779 24.4427 138.779 25.712V35.3C138.779 35.7987 138.62 36.218 138.303 36.558C137.985 36.8753 137.566 37.034 137.045 37.034C136.546 37.034 136.127 36.8753 135.787 36.558C135.469 36.218 135.311 35.7987 135.311 35.3V25.576C135.311 24.148 134.959 23.094 134.257 22.414C133.554 21.7113 132.636 21.36 131.503 21.36C130.324 21.36 129.349 21.768 128.579 22.584C127.808 23.4 127.423 24.4427 127.423 25.712V35.3C127.423 35.7987 127.264 36.218 126.947 36.558C126.629 36.8753 126.21 37.034 125.689 37.034ZM164.601 37.136C162.719 37.136 161.042 36.7393 159.569 35.946C158.118 35.13 156.973 34.0193 156.135 32.614C155.319 31.186 154.911 29.554 154.911 27.718C154.911 25.8593 155.296 24.2273 156.067 22.822C156.86 21.394 157.948 20.2833 159.331 19.49C160.713 18.674 162.3 18.266 164.091 18.266C165.859 18.266 167.377 18.6627 168.647 19.456C169.916 20.2267 170.879 21.3033 171.537 22.686C172.217 24.046 172.557 25.6213 172.557 27.412C172.557 27.8427 172.409 28.2053 172.115 28.5C171.82 28.772 171.446 28.908 170.993 28.908H158.073C158.322 30.472 159.036 31.7527 160.215 32.75C161.416 33.7247 162.878 34.212 164.601 34.212C165.303 34.212 166.017 34.0873 166.743 33.838C167.491 33.566 168.091 33.26 168.545 32.92C168.885 32.6707 169.247 32.546 169.633 32.546C170.041 32.5233 170.392 32.6367 170.687 32.886C171.072 33.226 171.276 33.6 171.299 34.008C171.321 34.416 171.14 34.7673 170.755 35.062C169.984 35.674 169.021 36.1727 167.865 36.558C166.731 36.9433 165.643 37.136 164.601 37.136ZM164.091 21.19C162.413 21.19 161.065 21.6547 160.045 22.584C159.025 23.5133 158.379 24.7147 158.107 26.188H169.429C169.225 24.7373 168.669 23.5473 167.763 22.618C166.856 21.666 165.632 21.19 164.091 21.19ZM183.95 18.436C184.653 18.436 185.174 18.81 185.514 19.558L192.518 34.756C192.722 35.2093 192.745 35.6173 192.586 35.98C192.427 36.32 192.155 36.5807 191.77 36.762C190.773 37.2153 190.036 36.9887 189.56 36.082L184.018 23.502L178.306 36.082C178.102 36.5127 177.796 36.796 177.388 36.932C177.003 37.0453 176.572 36.9887 176.096 36.762C175.665 36.558 175.359 36.286 175.178 35.946C175.019 35.606 175.053 35.2093 175.28 34.756L182.318 19.558C182.658 18.81 183.202 18.436 183.95 18.436ZM205.333 37.306C203.633 37.306 202.148 37 200.879 36.388C199.632 35.776 198.658 34.9147 197.955 33.804C197.275 32.6707 196.935 31.3447 196.935 29.826V20.102C196.98 19.626 197.162 19.2293 197.479 18.912C197.819 18.572 198.216 18.402 198.669 18.402C199.168 18.402 199.576 18.572 199.893 18.912C200.233 19.2293 200.403 19.6373 200.403 20.136V23.944H205.979C207.452 23.944 208.767 24.2047 209.923 24.726C211.102 25.2247 212.031 25.9613 212.711 26.936C213.391 27.888 213.731 29.0327 213.731 30.37C213.731 31.7073 213.38 32.8973 212.677 33.94C211.997 34.9827 211.034 35.81 209.787 36.422C208.54 37.0113 207.056 37.306 205.333 37.306ZM205.299 34.11C206.75 34.11 207.962 33.804 208.937 33.192C209.912 32.5573 210.399 31.6167 210.399 30.37C210.399 29.1913 209.98 28.3187 209.141 27.752C208.302 27.1627 207.248 26.868 205.979 26.868H200.403V29.758C200.403 30.574 200.618 31.3107 201.049 31.968C201.48 32.6253 202.058 33.1467 202.783 33.532C203.531 33.9173 204.37 34.11 205.299 34.11ZM229.911 37.034C229.412 37.034 229.015 36.8753 228.721 36.558C228.426 36.218 228.279 35.7987 228.279 35.3V20.136C228.279 19.6147 228.426 19.1953 228.721 18.878C229.015 18.5607 229.412 18.402 229.911 18.402C230.432 18.402 230.851 18.5607 231.169 18.878C231.509 19.1953 231.679 19.6147 231.679 20.136V25.814H234.263L240.417 18.946C240.711 18.6287 241.119 18.4473 241.641 18.402C242.185 18.3567 242.604 18.47 242.899 18.742C243.239 19.0593 243.431 19.422 243.477 19.83C243.522 20.2153 243.397 20.5667 243.103 20.884L236.949 27.48L243.477 34.484C243.771 34.7787 243.919 35.13 243.919 35.538C243.919 35.9233 243.737 36.2747 243.375 36.592C243.08 36.864 242.661 37 242.117 37C241.595 36.9773 241.187 36.8187 240.893 36.524L233.889 29.01H231.679V35.3C231.679 35.7987 231.509 36.218 231.169 36.558C230.851 36.8753 230.432 37.034 229.911 37.034ZM247.095 45.16C246.687 45.16 246.268 45.1033 245.837 44.99C245.429 44.8767 245.021 44.7067 244.613 44.48C244.115 44.1853 243.786 43.8227 243.627 43.392C243.469 42.9613 243.537 42.542 243.831 42.134C244.103 41.7487 244.432 41.5107 244.817 41.42C245.203 41.3293 245.611 41.4087 246.041 41.658C246.517 41.93 246.971 42.066 247.401 42.066C248.784 42.066 250.144 40.5813 251.481 37.612L252.569 35.13L244.953 20.646C244.727 20.2153 244.693 19.8073 244.851 19.422C245.033 19.014 245.339 18.7193 245.769 18.538C246.2 18.3567 246.597 18.3453 246.959 18.504C247.345 18.64 247.651 18.9233 247.877 19.354L254.133 31.628L259.607 19.252C259.811 18.7987 260.117 18.4927 260.525 18.334C260.956 18.1753 261.387 18.198 261.817 18.402C262.203 18.5607 262.452 18.8553 262.565 19.286C262.679 19.694 262.622 20.136 262.395 20.612L254.201 38.972C253.385 40.808 252.343 42.2927 251.073 43.426C249.827 44.582 248.501 45.16 247.095 45.16ZM267.864 44.956C267.366 44.956 266.946 44.786 266.606 44.446C266.289 44.1287 266.13 43.7207 266.13 43.222V27.718C266.153 25.9273 266.572 24.318 267.388 22.89C268.204 21.462 269.315 20.34 270.72 19.524C272.126 18.6853 273.712 18.266 275.48 18.266C277.271 18.266 278.869 18.6853 280.274 19.524C281.68 20.34 282.79 21.462 283.606 22.89C284.445 24.318 284.864 25.9273 284.864 27.718C284.864 29.5087 284.479 31.118 283.708 32.546C282.96 33.9513 281.929 35.0733 280.614 35.912C279.3 36.728 277.815 37.136 276.16 37.136C274.823 37.136 273.588 36.864 272.454 36.32C271.344 35.7533 270.392 34.994 269.598 34.042V43.222C269.598 43.7207 269.44 44.1287 269.122 44.446C268.805 44.786 268.386 44.956 267.864 44.956ZM275.48 34.076C276.636 34.076 277.668 33.804 278.574 33.26C279.481 32.6933 280.195 31.934 280.716 30.982C281.26 30.0073 281.532 28.9193 281.532 27.718C281.532 26.494 281.26 25.406 280.716 24.454C280.195 23.4793 279.481 22.72 278.574 22.176C277.668 21.6093 276.636 21.326 275.48 21.326C274.347 21.326 273.316 21.6093 272.386 22.176C271.48 22.72 270.766 23.4793 270.244 24.454C269.723 25.406 269.462 26.494 269.462 27.718C269.462 28.9193 269.723 30.0073 270.244 30.982C270.766 31.934 271.48 32.6933 272.386 33.26C273.316 33.804 274.347 34.076 275.48 34.076ZM298.469 37.136C296.655 37.136 295.035 36.728 293.607 35.912C292.201 35.0733 291.091 33.9513 290.275 32.546C289.481 31.118 289.085 29.5087 289.085 27.718C289.085 25.882 289.481 24.25 290.275 22.822C291.068 21.394 292.156 20.2833 293.539 19.49C294.921 18.674 296.508 18.266 298.299 18.266C300.973 18.266 303.195 19.286 304.963 21.326C305.28 21.6887 305.393 22.0627 305.303 22.448C305.212 22.8333 304.963 23.1733 304.555 23.468C304.237 23.6947 303.886 23.774 303.501 23.706C303.115 23.6153 302.764 23.4113 302.447 23.094C301.336 21.9153 299.953 21.326 298.299 21.326C296.553 21.326 295.137 21.9153 294.049 23.094C292.961 24.25 292.417 25.7913 292.417 27.718C292.417 28.942 292.666 30.03 293.165 30.982C293.686 31.934 294.4 32.6933 295.307 33.26C296.213 33.804 297.267 34.076 298.469 34.076C300.01 34.076 301.257 33.6793 302.209 32.886C302.571 32.5913 302.945 32.4327 303.331 32.41C303.716 32.3647 304.056 32.4667 304.351 32.716C304.736 33.0333 304.951 33.396 304.997 33.804C305.042 34.1893 304.906 34.5407 304.589 34.858C302.957 36.3767 300.917 37.136 298.469 37.136ZM318.208 37.136C316.554 37.136 315.069 36.728 313.754 35.912C312.44 35.0733 311.397 33.9513 310.626 32.546C309.878 31.118 309.504 29.5087 309.504 27.718C309.504 25.9273 309.912 24.318 310.728 22.89C311.567 21.462 312.689 20.34 314.094 19.524C315.522 18.6853 317.12 18.266 318.888 18.266C320.656 18.266 322.243 18.6853 323.648 19.524C325.054 20.34 326.164 21.462 326.98 22.89C327.819 24.318 328.238 25.9273 328.238 27.718V35.3C328.238 35.7987 328.068 36.218 327.728 36.558C327.411 36.8753 327.003 37.034 326.504 37.034C326.006 37.034 325.586 36.8753 325.246 36.558C324.929 36.218 324.77 35.7987 324.77 35.3V34.042C323.977 34.994 323.014 35.7533 321.88 36.32C320.77 36.864 319.546 37.136 318.208 37.136ZM318.888 34.076C320.044 34.076 321.076 33.804 321.982 33.26C322.889 32.6933 323.603 31.934 324.124 30.982C324.646 30.0073 324.906 28.9193 324.906 27.718C324.906 26.494 324.646 25.406 324.124 24.454C323.603 23.4793 322.889 22.72 321.982 22.176C321.076 21.6093 320.044 21.326 318.888 21.326C317.755 21.326 316.724 21.6093 315.794 22.176C314.888 22.72 314.162 23.4793 313.618 24.454C313.097 25.406 312.836 26.494 312.836 27.718C312.836 28.9193 313.097 30.0073 313.618 30.982C314.162 31.934 314.888 32.6933 315.794 33.26C316.724 33.804 317.755 34.076 318.888 34.076Z" fill="white"/>
<g filter="url(#filter1_d)">
<path d="M45.168 90C44.6693 90 44.25 89.83 43.91 89.49C43.57 89.15 43.4 88.7307 43.4 88.232V65.214C43.4 64.6927 43.57 64.2733 43.91 63.956C44.25 63.616 44.6693 63.446 45.168 63.446H59.584C60.0373 63.446 60.4113 63.6047 60.706 63.922C61.0233 64.2167 61.182 64.6133 61.182 65.112C61.182 65.5653 61.0233 65.9507 60.706 66.268C60.4113 66.5627 60.0373 66.71 59.584 66.71H46.936V74.36H54.688C56.388 74.36 57.8953 74.6887 59.21 75.346C60.5247 75.9807 61.5447 76.876 62.27 78.032C63.018 79.1653 63.392 80.48 63.392 81.976C63.392 83.54 63.018 84.9227 62.27 86.124C61.5447 87.3253 60.5247 88.2773 59.21 88.98C57.8953 89.66 56.388 90 54.688 90H45.168ZM46.936 86.736H54.688C56.2293 86.736 57.4987 86.3393 58.496 85.546C59.4933 84.73 59.992 83.54 59.992 81.976C59.992 80.412 59.4933 79.2673 58.496 78.542C57.4987 77.794 56.2293 77.42 54.688 77.42H46.936V86.736ZM80.9416 90.34C78.9469 90.34 77.1222 90.0113 75.4676 89.354C73.8129 88.674 72.3849 87.7333 71.1836 86.532C70.0049 85.308 69.0869 83.8687 68.4296 82.214C67.7722 80.5367 67.4436 78.7007 67.4436 76.706C67.4436 74.7113 67.7722 72.8867 68.4296 71.232C69.0869 69.5773 70.0049 68.1493 71.1836 66.948C72.3849 65.724 73.8129 64.7833 75.4676 64.126C77.1222 63.446 78.9469 63.106 80.9416 63.106C82.9362 63.106 84.7496 63.446 86.3816 64.126C88.0362 64.7833 89.4642 65.724 90.6656 66.948C91.8669 68.1493 92.7962 69.5773 93.4536 71.232C94.1109 72.8867 94.4396 74.7113 94.4396 76.706C94.4396 78.7007 94.1109 80.5367 93.4536 82.214C92.7962 83.8687 91.8669 85.308 90.6656 86.532C89.4642 87.7333 88.0362 88.674 86.3816 89.354C84.7496 90.0113 82.9362 90.34 80.9416 90.34ZM80.9416 87.144C82.9136 87.144 84.6589 86.6907 86.1776 85.784C87.6962 84.8547 88.8862 83.608 89.7476 82.044C90.6089 80.4573 91.0396 78.678 91.0396 76.706C91.0396 74.734 90.6089 72.966 89.7476 71.402C88.8862 69.8153 87.6962 68.5687 86.1776 67.662C84.6589 66.7553 82.9136 66.302 80.9416 66.302C78.9696 66.302 77.2242 66.7553 75.7056 67.662C74.1869 68.5687 72.9969 69.8153 72.1356 71.402C71.2742 72.966 70.8436 74.734 70.8436 76.706C70.8436 78.678 71.2742 80.4573 72.1356 82.044C72.9969 83.608 74.1869 84.8547 75.7056 85.784C77.2242 86.6907 78.9696 87.144 80.9416 87.144ZM101.746 90C101.247 90 100.828 89.83 100.488 89.49C100.148 89.15 99.9781 88.7307 99.9781 88.232V65.214C99.9781 64.6927 100.148 64.2733 100.488 63.956C100.828 63.616 101.247 63.446 101.746 63.446H115.788C116.309 63.446 116.729 63.6047 117.046 63.922C117.363 64.2167 117.522 64.6133 117.522 65.112C117.522 65.588 117.363 65.9733 117.046 66.268C116.729 66.5627 116.309 66.71 115.788 66.71H103.514V88.232C103.514 88.7307 103.344 89.15 103.004 89.49C102.664 89.83 102.245 90 101.746 90ZM133.535 90.34C131.541 90.34 129.716 90.0113 128.061 89.354C126.407 88.674 124.979 87.7333 123.777 86.532C122.599 85.308 121.681 83.8687 121.023 82.214C120.366 80.5367 120.037 78.7007 120.037 76.706C120.037 74.7113 120.366 72.8867 121.023 71.232C121.681 69.5773 122.599 68.1493 123.777 66.948C124.979 65.724 126.407 64.7833 128.061 64.126C129.716 63.446 131.541 63.106 133.535 63.106C135.53 63.106 137.343 63.446 138.975 64.126C140.63 64.7833 142.058 65.724 143.259 66.948C144.461 68.1493 145.39 69.5773 146.047 71.232C146.705 72.8867 147.033 74.7113 147.033 76.706C147.033 78.7007 146.705 80.5367 146.047 82.214C145.39 83.8687 144.461 85.308 143.259 86.532C142.058 87.7333 140.63 88.674 138.975 89.354C137.343 90.0113 135.53 90.34 133.535 90.34ZM133.535 87.144C135.507 87.144 137.253 86.6907 138.771 85.784C140.29 84.8547 141.48 83.608 142.341 82.044C143.203 80.4573 143.633 78.678 143.633 76.706C143.633 74.734 143.203 72.966 142.341 71.402C141.48 69.8153 140.29 68.5687 138.771 67.662C137.253 66.7553 135.507 66.302 133.535 66.302C131.563 66.302 129.818 66.7553 128.299 67.662C126.781 68.5687 125.591 69.8153 124.729 71.402C123.868 72.966 123.437 74.734 123.437 76.706C123.437 78.678 123.868 80.4573 124.729 82.044C125.591 83.608 126.781 84.8547 128.299 85.784C129.818 86.6907 131.563 87.144 133.535 87.144ZM154.34 90C153.841 90 153.422 89.83 153.082 89.49C152.742 89.15 152.572 88.7307 152.572 88.232V65.214C152.572 64.6927 152.742 64.2733 153.082 63.956C153.422 63.616 153.841 63.446 154.34 63.446C155.02 63.446 155.541 63.7633 155.904 64.398L166.002 84.628L175.828 64.398C176.191 63.7633 176.712 63.446 177.392 63.446C177.891 63.446 178.31 63.616 178.65 63.956C178.99 64.2733 179.16 64.6927 179.16 65.214V88.232C179.16 88.7307 178.979 89.15 178.616 89.49C178.276 89.83 177.868 90 177.392 90C176.893 90 176.474 89.83 176.134 89.49C175.794 89.15 175.624 88.7307 175.624 88.232V71.334L167.396 88.096C167.011 88.6853 166.501 88.98 165.866 88.98C165.118 88.98 164.574 88.6287 164.234 87.926L156.108 71.64V88.232C156.108 88.7307 155.938 89.15 155.598 89.49C155.258 89.83 154.839 90 154.34 90ZM198.248 90.34C196.254 90.34 194.429 90.0113 192.774 89.354C191.12 88.674 189.692 87.7333 188.49 86.532C187.312 85.308 186.394 83.8687 185.736 82.214C185.079 80.5367 184.75 78.7007 184.75 76.706C184.75 74.7113 185.079 72.8867 185.736 71.232C186.394 69.5773 187.312 68.1493 188.49 66.948C189.692 65.724 191.12 64.7833 192.774 64.126C194.429 63.446 196.254 63.106 198.248 63.106C200.243 63.106 202.056 63.446 203.688 64.126C205.343 64.7833 206.771 65.724 207.972 66.948C209.174 68.1493 210.103 69.5773 210.76 71.232C211.418 72.8867 211.746 74.7113 211.746 76.706C211.746 78.7007 211.418 80.5367 210.76 82.214C210.103 83.8687 209.174 85.308 207.972 86.532C206.771 87.7333 205.343 88.674 203.688 89.354C202.056 90.0113 200.243 90.34 198.248 90.34ZM198.248 87.144C200.22 87.144 201.966 86.6907 203.484 85.784C205.003 84.8547 206.193 83.608 207.054 82.044C207.916 80.4573 208.346 78.678 208.346 76.706C208.346 74.734 207.916 72.966 207.054 71.402C206.193 69.8153 205.003 68.5687 203.484 67.662C201.966 66.7553 200.22 66.302 198.248 66.302C196.276 66.302 194.531 66.7553 193.012 67.662C191.494 68.5687 190.304 69.8153 189.442 71.402C188.581 72.966 188.15 74.734 188.15 76.706C188.15 78.678 188.581 80.4573 189.442 82.044C190.304 83.608 191.494 84.8547 193.012 85.784C194.531 86.6907 196.276 87.144 198.248 87.144ZM215.635 90C215 90 214.513 89.728 214.173 89.184C213.833 88.64 213.799 88.062 214.071 87.45L223.625 64.636C223.965 63.8427 224.52 63.446 225.291 63.446C226.107 63.446 226.662 63.8427 226.957 64.636L236.545 87.518C236.794 88.1527 236.76 88.7307 236.443 89.252C236.148 89.7507 235.672 90 235.015 90C234.675 90 234.346 89.9093 234.029 89.728C233.734 89.524 233.519 89.252 233.383 88.912L225.427 69.294L217.267 88.912C217.108 89.2747 216.87 89.5467 216.553 89.728C216.258 89.9093 215.952 90 215.635 90ZM252.403 90.34C250.408 90.34 248.583 90.0113 246.929 89.354C245.274 88.674 243.846 87.7333 242.645 86.532C241.466 85.308 240.548 83.8687 239.891 82.214C239.233 80.5367 238.905 78.7007 238.905 76.706C238.905 74.7113 239.233 72.8867 239.891 71.232C240.548 69.5773 241.466 68.1493 242.645 66.948C243.846 65.724 245.274 64.7833 246.929 64.126C248.583 63.446 250.408 63.106 252.403 63.106C254.397 63.106 256.211 63.446 257.843 64.126C259.497 64.7833 260.925 65.724 262.127 66.948C263.328 68.1493 264.257 69.5773 264.915 71.232C265.572 72.8867 265.901 74.7113 265.901 76.706C265.901 78.7007 265.572 80.5367 264.915 82.214C264.257 83.8687 263.328 85.308 262.127 86.532C260.925 87.7333 259.497 88.674 257.843 89.354C256.211 90.0113 254.397 90.34 252.403 90.34ZM252.403 87.144C254.375 87.144 256.12 86.6907 257.639 85.784C259.157 84.8547 260.347 83.608 261.209 82.044C262.07 80.4573 262.501 78.678 262.501 76.706C262.501 74.734 262.07 72.966 261.209 71.402C260.347 69.8153 259.157 68.5687 257.639 67.662C256.12 66.7553 254.375 66.302 252.403 66.302C250.431 66.302 248.685 66.7553 247.167 67.662C245.648 68.5687 244.458 69.8153 243.597 71.402C242.735 72.966 242.305 74.734 242.305 76.706C242.305 78.678 242.735 80.4573 243.597 82.044C244.458 83.608 245.648 84.8547 247.167 85.784C248.685 86.6907 250.431 87.144 252.403 87.144ZM273.207 90C272.708 90 272.289 89.83 271.949 89.49C271.609 89.15 271.439 88.7307 271.439 88.232V65.214C271.439 64.6927 271.609 64.2733 271.949 63.956C272.289 63.616 272.708 63.446 273.207 63.446H281.333C282.874 63.446 284.223 63.752 285.379 64.364C286.558 64.9533 287.476 65.7807 288.133 66.846C288.813 67.9113 289.153 69.1353 289.153 70.518C289.153 71.6287 288.847 72.6373 288.235 73.544C287.646 74.428 286.83 75.1307 285.787 75.652C287.283 76.0147 288.484 76.7287 289.391 77.794C290.298 78.8593 290.751 80.2533 290.751 81.976C290.751 83.54 290.377 84.9227 289.629 86.124C288.904 87.3253 287.884 88.2773 286.569 88.98C285.254 89.66 283.747 90 282.047 90H273.207ZM274.975 74.36H281.333C282.625 74.36 283.679 74.0427 284.495 73.408C285.334 72.7733 285.753 71.81 285.753 70.518C285.753 69.226 285.334 68.274 284.495 67.662C283.679 67.0273 282.625 66.71 281.333 66.71H274.975V74.36ZM274.975 86.736H282.047C283.588 86.736 284.858 86.3393 285.855 85.546C286.852 84.73 287.351 83.54 287.351 81.976C287.351 80.5253 286.852 79.4373 285.855 78.712C284.858 77.9867 283.588 77.624 282.047 77.624H274.975V86.736Z" fill="white"/>
</g>
<g filter="url(#filter2_d)">
<path d="M306 110.168C306 109.669 306.17 109.25 306.51 108.91C306.85 108.57 307.269 108.4 307.768 108.4H330.786C331.307 108.4 331.727 108.57 332.044 108.91C332.384 109.25 332.554 109.669 332.554 110.168C332.554 110.689 332.384 111.109 332.044 111.426C331.727 111.766 331.307 111.936 330.786 111.936H321.028V127.712H330.786C331.307 127.712 331.727 127.882 332.044 128.222C332.384 128.562 332.554 128.981 332.554 129.48C332.554 130.001 332.384 130.421 332.044 130.738C331.727 131.055 331.307 131.214 330.786 131.214H307.768C307.269 131.214 306.85 131.055 306.51 130.738C306.17 130.421 306 130.001 306 129.48C306 128.981 306.17 128.562 306.51 128.222C306.85 127.882 307.269 127.712 307.768 127.712H317.9V111.936H307.768C307.269 111.936 306.85 111.766 306.51 111.426C306.17 111.109 306 110.689 306 110.168ZM306 136.963C306 136.329 306.272 135.841 306.816 135.501C307.36 135.161 307.938 135.127 308.55 135.399L331.364 144.953C332.157 145.293 332.554 145.849 332.554 146.619C332.554 147.435 332.157 147.991 331.364 148.285L308.482 157.873C307.847 158.123 307.269 158.077 306.748 157.737C306.249 157.42 306 156.933 306 156.275C306 155.935 306.091 155.607 306.272 155.289C306.476 154.995 306.748 154.779 307.088 154.643L311.848 152.739V140.533L307.088 138.595C306.725 138.437 306.453 138.199 306.272 137.881C306.091 137.587 306 137.281 306 136.963ZM314.772 141.723V151.549L326.876 146.687L314.772 141.723ZM305.66 173.159C305.66 171.323 306 169.601 306.68 167.991C307.383 166.405 308.346 165.011 309.57 163.809C310.817 162.631 312.267 161.701 313.922 161.021C315.577 160.364 317.367 160.035 319.294 160.035C321.198 160.035 322.966 160.364 324.598 161.021C326.253 161.701 327.692 162.631 328.916 163.809C330.163 165.011 331.137 166.405 331.84 167.991C332.543 169.578 332.894 171.301 332.894 173.159C332.894 174.905 332.667 176.401 332.214 177.647C331.761 178.917 331.013 180.186 329.97 181.455C329.743 181.727 329.528 181.909 329.324 181.999C329.12 182.09 328.871 182.135 328.576 182.135C328.145 182.135 327.783 181.977 327.488 181.659C327.216 181.365 327.057 181.002 327.012 180.571C326.989 180.141 327.137 179.721 327.454 179.313C328.179 178.475 328.735 177.602 329.12 176.695C329.505 175.811 329.698 174.633 329.698 173.159C329.698 171.822 329.426 170.564 328.882 169.385C328.338 168.207 327.59 167.164 326.638 166.257C325.686 165.373 324.575 164.682 323.306 164.183C322.059 163.685 320.722 163.435 319.294 163.435C317.843 163.435 316.483 163.685 315.214 164.183C313.967 164.682 312.868 165.373 311.916 166.257C310.964 167.164 310.216 168.207 309.672 169.385C309.151 170.564 308.89 171.822 308.89 173.159C308.89 174.315 309.083 175.403 309.468 176.423C309.876 177.466 310.431 178.463 311.134 179.415C311.429 179.823 311.553 180.22 311.508 180.605C311.485 181.013 311.327 181.353 311.032 181.625C310.76 181.897 310.375 182.033 309.876 182.033C309.4 182.033 308.981 181.852 308.618 181.489C306.646 179.041 305.66 176.265 305.66 173.159ZM306 195.543C306 195.044 306.17 194.625 306.51 194.285C306.85 193.945 307.269 193.775 307.768 193.775H329.29V186.431C329.29 185.955 329.437 185.558 329.732 185.241C330.049 184.946 330.446 184.799 330.922 184.799C331.398 184.799 331.783 184.946 332.078 185.241C332.395 185.558 332.554 185.955 332.554 186.431V204.621C332.554 205.097 332.395 205.482 332.078 205.777C331.783 206.094 331.398 206.253 330.922 206.253C330.446 206.253 330.049 206.094 329.732 205.777C329.437 205.482 329.29 205.097 329.29 204.621V197.311H307.768C307.269 197.311 306.85 197.141 306.51 196.801C306.17 196.461 306 196.042 306 195.543ZM306 206.391C306 205.756 306.272 205.269 306.816 204.929C307.36 204.589 307.938 204.555 308.55 204.827L331.364 214.381C332.157 214.721 332.554 215.276 332.554 216.047C332.554 216.863 332.157 217.418 331.364 217.713L308.482 227.301C307.847 227.55 307.269 227.505 306.748 227.165C306.249 226.848 306 226.36 306 225.703C306 225.363 306.091 225.034 306.272 224.717C306.476 224.422 306.748 224.207 307.088 224.071L311.848 222.167V209.961L307.088 208.023C306.725 207.864 306.453 207.626 306.272 207.309C306.091 207.014 306 206.708 306 206.391ZM314.772 211.151V220.977L326.876 216.115L314.772 211.151ZM305.66 242.587C305.66 240.751 306 239.028 306.68 237.419C307.383 235.832 308.346 234.438 309.57 233.237C310.817 232.058 312.267 231.129 313.922 230.449C315.577 229.792 317.367 229.463 319.294 229.463C321.198 229.463 322.966 229.792 324.598 230.449C326.253 231.129 327.692 232.058 328.916 233.237C330.163 234.438 331.137 235.832 331.84 237.419C332.543 239.006 332.894 240.728 332.894 242.587C332.894 244.332 332.667 245.828 332.214 247.075C331.761 248.344 331.013 249.614 329.97 250.883C329.743 251.155 329.528 251.336 329.324 251.427C329.12 251.518 328.871 251.563 328.576 251.563C328.145 251.563 327.783 251.404 327.488 251.087C327.216 250.792 327.057 250.43 327.012 249.999C326.989 249.568 327.137 249.149 327.454 248.741C328.179 247.902 328.735 247.03 329.12 246.123C329.505 245.239 329.698 244.06 329.698 242.587C329.698 241.25 329.426 239.992 328.882 238.813C328.338 237.634 327.59 236.592 326.638 235.685C325.686 234.801 324.575 234.11 323.306 233.611C322.059 233.112 320.722 232.863 319.294 232.863C317.843 232.863 316.483 233.112 315.214 233.611C313.967 234.11 312.868 234.801 311.916 235.685C310.964 236.592 310.216 237.634 309.672 238.813C309.151 239.992 308.89 241.25 308.89 242.587C308.89 243.743 309.083 244.831 309.468 245.851C309.876 246.894 310.431 247.891 311.134 248.843C311.429 249.251 311.553 249.648 311.508 250.033C311.485 250.441 311.327 250.781 311.032 251.053C310.76 251.325 310.375 251.461 309.876 251.461C309.4 251.461 308.981 251.28 308.618 250.917C306.646 248.469 305.66 245.692 305.66 242.587ZM306 258.953C306 258.454 306.17 258.023 306.51 257.661C306.85 257.298 307.269 257.117 307.768 257.117H330.786C331.307 257.117 331.727 257.298 332.044 257.661C332.384 258.023 332.554 258.454 332.554 258.953C332.554 259.474 332.384 259.882 332.044 260.177C331.727 260.494 331.307 260.653 330.786 260.653H311.508L331.908 276.973C332.339 277.335 332.554 277.789 332.554 278.333C332.554 278.854 332.384 279.273 332.044 279.591C331.727 279.931 331.307 280.101 330.786 280.101H307.768C307.269 280.101 306.85 279.931 306.51 279.591C306.17 279.273 306 278.854 306 278.333C306 277.834 306.17 277.415 306.51 277.075C306.85 276.735 307.269 276.565 307.768 276.565H327.012L306.612 260.313C306.431 260.154 306.283 259.95 306.17 259.701C306.057 259.451 306 259.202 306 258.953ZM306 287.818C306 287.093 306.283 286.583 306.85 286.288C307.439 285.993 308.063 286.05 308.72 286.458L317.016 291.626C317.537 289.926 318.421 288.566 319.668 287.546C320.937 286.549 322.445 286.05 324.19 286.05C325.822 286.05 327.261 286.424 328.508 287.172C329.777 287.92 330.763 288.94 331.466 290.232C332.191 291.547 332.554 293.054 332.554 294.754V302.948C332.554 303.469 332.384 303.889 332.044 304.206C331.727 304.546 331.307 304.716 330.786 304.716H307.768C307.269 304.716 306.85 304.546 306.51 304.206C306.17 303.889 306 303.469 306 302.948C306 302.449 306.17 302.03 306.51 301.69C306.85 301.35 307.269 301.18 307.768 301.18H316.234V295.162L306.85 289.348C306.283 288.985 306 288.475 306 287.818ZM319.362 294.754V301.18H329.29V294.754C329.29 293.213 328.859 291.943 327.998 290.946C327.137 289.949 325.867 289.45 324.19 289.45C322.626 289.45 321.425 289.949 320.586 290.946C319.77 291.943 319.362 293.213 319.362 294.754Z" fill="white"/>
</g>
<g filter="url(#filter3_d)">
<path d="M293 57.106C293 55.7247 293.592 54.664 294.776 53.924C295.96 53.184 297.218 53.11 298.55 53.702L348.204 74.496C349.931 75.236 350.794 76.4447 350.794 78.122C350.794 79.898 349.931 81.1067 348.204 81.748L298.402 102.616C297.021 103.159 295.763 103.06 294.628 102.32C293.543 101.629 293 100.569 293 99.138C293 98.398 293.197 97.6827 293.592 96.992C294.036 96.3507 294.628 95.882 295.368 95.586L305.728 91.442V64.876L295.368 60.658C294.579 60.3127 293.987 59.7947 293.592 59.104C293.197 58.4627 293 57.7967 293 57.106ZM312.092 67.466V88.852L338.436 78.27L312.092 67.466Z" fill="white"/>
</g>
<defs>
<filter id="filter0_d" x="0" y="0" width="48" height="48" filterUnits="userSpaceOnUse" color-interpolation-filters="sRGB">
<feFlood flood-opacity="0" result="BackgroundImageFix"/>
<feColorMatrix in="SourceAlpha" type="matrix" values="0 0 0 0 0 0 0 0 0 0 0 0 0 0 0 0 0 0 127 0"/>
<feOffset/>
<feGaussianBlur stdDeviation="8.5"/>
<feColorMatrix type="matrix" values="0 0 0 0 1 0 0 0 0 0.96 0 0 0 0 0 0 0 0 1 0"/>
<feBlend mode="normal" in2="BackgroundImageFix" result="effect1_dropShadow"/>
<feBlend mode="normal" in="SourceGraphic" in2="effect1_dropShadow" result="shape"/>
</filter>
<filter id="filter1_d" x="30.3999" y="50.106" width="273.351" height="53.234" filterUnits="userSpaceOnUse" color-interpolation-filters="sRGB">
<feFlood flood-opacity="0" result="BackgroundImageFix"/>
<feColorMatrix in="SourceAlpha" type="matrix" values="0 0 0 0 0 0 0 0 0 0 0 0 0 0 0 0 0 0 127 0"/>
<feOffset/>
<feGaussianBlur stdDeviation="6.5"/>
<feColorMatrix type="matrix" values="0 0 0 0 0.182153 0 0 0 0 0.716667 0 0 0 0 0.524242 0 0 0 1 0"/>
<feBlend mode="normal" in2="BackgroundImageFix" result="effect1_dropShadow"/>
<feBlend mode="normal" in="SourceGraphic" in2="effect1_dropShadow" result="shape"/>
</filter>
<filter id="filter2_d" x="292.66" y="95.3999" width="53.234" height="222.316" filterUnits="userSpaceOnUse" color-interpolation-filters="sRGB">
<feFlood flood-opacity="0" result="BackgroundImageFix"/>
<feColorMatrix in="SourceAlpha" type="matrix" values="0 0 0 0 0 0 0 0 0 0 0 0 0 0 0 0 0 0 127 0"/>
<feOffset/>
<feGaussianBlur stdDeviation="6.5"/>
<feColorMatrix type="matrix" values="0 0 0 0 0.182153 0 0 0 0 0.716667 0 0 0 0 0.524242 0 0 0 1 0"/>
<feBlend mode="normal" in2="BackgroundImageFix" result="effect1_dropShadow"/>
<feBlend mode="normal" in="SourceGraphic" in2="effect1_dropShadow" result="shape"/>
</filter>
<filter id="filter3_d" x="280" y="40.3074" width="83.794" height="75.6531" filterUnits="userSpaceOnUse" color-interpolation-filters="sRGB">
<feFlood flood-opacity="0" result="BackgroundImageFix"/>
<feColorMatrix in="SourceAlpha" type="matrix" values="0 0 0 0 0 0 0 0 0 0 0 0 0 0 0 0 0 0 127 0"/>
<feOffset/>
<feGaussianBlur stdDeviation="6.5"/>
<feColorMatrix type="matrix" values="0 0 0 0 0.182153 0 0 0 0 0.716667 0 0 0 0 0.524242 0 0 0 1 0"/>
<feBlend mode="normal" in2="BackgroundImageFix" result="effect1_dropShadow"/>
<feBlend mode="normal" in="SourceGraphic" in2="effect1_dropShadow" result="shape"/>
</filter>
</defs>
</svg>
