<svg width="357" height="164" viewBox="0 0 357 164" fill="none" xmlns="http://www.w3.org/2000/svg">
<rect width="25" height="125" rx="2" fill="white"/>
<path d="M14.5273 22.0762C14.5273 21.3926 14.2676 20.8639 13.748 20.4902C13.2376 20.1074 12.3398 19.7793 11.0547 19.5059C9.77865 19.2324 8.76237 18.9043 8.00586 18.5215C7.25846 18.1387 6.70247 17.6829 6.33789 17.1543C5.98242 16.6257 5.80469 15.9967 5.80469 15.2676C5.80469 14.0553 6.3151 13.0299 7.33594 12.1914C8.36589 11.3529 9.67839 10.9336 11.2734 10.9336C12.9505 10.9336 14.3086 11.3665 15.3477 12.2324C16.3958 13.0983 16.9199 14.2057 16.9199 15.5547H14.377C14.377 14.862 14.0807 14.265 13.4883 13.7637C12.9049 13.2624 12.1667 13.0117 11.2734 13.0117C10.3529 13.0117 9.63281 13.2122 9.11328 13.6133C8.59375 14.0143 8.33398 14.5384 8.33398 15.1855C8.33398 15.7962 8.57552 16.2565 9.05859 16.5664C9.54167 16.8763 10.4121 17.1725 11.6699 17.4551C12.9368 17.7376 13.9622 18.0749 14.7461 18.4668C15.5299 18.8587 16.1087 19.3327 16.4824 19.8887C16.8652 20.4355 17.0566 21.1055 17.0566 21.8984C17.0566 23.2201 16.528 24.2819 15.4707 25.084C14.4134 25.877 13.0417 26.2734 11.3555 26.2734C10.1706 26.2734 9.1224 26.0638 8.21094 25.6445C7.29948 25.2253 6.58398 24.6419 6.06445 23.8945C5.55404 23.138 5.29883 22.3223 5.29883 21.4473H7.82812C7.8737 22.2949 8.21094 22.9694 8.83984 23.4707C9.47786 23.9629 10.3164 24.209 11.3555 24.209C12.3125 24.209 13.0781 24.0176 13.6523 23.6348C14.2357 23.2428 14.5273 22.7233 14.5273 22.0762Z" fill="black"/>
<path d="M12.3457 38.625V42.207H15.1074V44.1621H12.3457V53.3359C12.3457 53.9284 12.4688 54.375 12.7148 54.6758C12.9609 54.9674 13.3802 55.1133 13.9727 55.1133C14.2643 55.1133 14.6654 55.0586 15.1758 54.9492V57C14.5104 57.1823 13.8633 57.2734 13.2344 57.2734C12.1042 57.2734 11.252 56.9316 10.6777 56.248C10.1035 55.5645 9.81641 54.5938 9.81641 53.3359V44.1621H7.12305V42.207H9.81641V38.625H12.3457Z" fill="black"/>
<path d="M5.29883 79.4805C5.29883 77.2109 5.83659 75.388 6.91211 74.0117C7.98763 72.6263 9.39583 71.9336 11.1367 71.9336C12.8685 71.9336 14.2402 72.526 15.252 73.7109V66H17.7812V87H15.457L15.334 85.4141C14.3223 86.6536 12.9141 87.2734 11.1094 87.2734C9.39583 87.2734 7.99674 86.5716 6.91211 85.168C5.83659 83.7643 5.29883 81.9323 5.29883 79.6719V79.4805ZM7.82812 79.7676C7.82812 81.4447 8.17448 82.7572 8.86719 83.7051C9.5599 84.653 10.5169 85.127 11.7383 85.127C13.3424 85.127 14.5137 84.4069 15.252 82.9668V76.1719C14.4954 74.7773 13.3333 74.0801 11.7656 74.0801C10.526 74.0801 9.5599 74.5586 8.86719 75.5156C8.17448 76.4727 7.82812 77.89 7.82812 79.7676Z" fill="black"/>
<path d="M11.8477 116.209C12.75 116.209 13.5384 115.936 14.2129 115.389C14.8874 114.842 15.2611 114.158 15.334 113.338H17.7266C17.681 114.186 17.3893 114.992 16.8516 115.758C16.3138 116.523 15.5938 117.134 14.6914 117.59C13.7982 118.046 12.8503 118.273 11.8477 118.273C9.83333 118.273 8.22917 117.604 7.03516 116.264C5.85026 114.915 5.25781 113.074 5.25781 110.74V110.316C5.25781 108.876 5.52214 107.596 6.05078 106.475C6.57943 105.354 7.33594 104.483 8.32031 103.863C9.3138 103.243 10.485 102.934 11.834 102.934C13.4928 102.934 14.8691 103.43 15.9629 104.424C17.0658 105.417 17.6536 106.707 17.7266 108.293H15.334C15.2611 107.336 14.8965 106.552 14.2402 105.941C13.5931 105.322 12.791 105.012 11.834 105.012C10.5488 105.012 9.55078 105.477 8.83984 106.406C8.13802 107.327 7.78711 108.662 7.78711 110.412V110.891C7.78711 112.595 8.13802 113.908 8.83984 114.828C9.54167 115.749 10.5443 116.209 11.8477 116.209Z" fill="black"/>
<path d="M38.3457 7.625V11.207H41.1074V13.1621H38.3457V22.3359C38.3457 22.9284 38.4688 23.375 38.7148 23.6758C38.9609 23.9674 39.3802 24.1133 39.9727 24.1133C40.2643 24.1133 40.6654 24.0586 41.1758 23.9492V26C40.5104 26.1823 39.8633 26.2734 39.2344 26.2734C38.1042 26.2734 37.252 25.9316 36.6777 25.248C36.1035 24.5645 35.8164 23.5938 35.8164 22.3359V13.1621H33.123V11.207H35.8164V7.625H38.3457ZM43.1309 18.4668C43.1309 17.0176 43.4134 15.7142 43.9785 14.5566C44.5527 13.3991 45.3457 12.5059 46.3574 11.877C47.3783 11.248 48.5404 10.9336 49.8438 10.9336C51.8581 10.9336 53.485 11.6309 54.7246 13.0254C55.9733 14.4199 56.5977 16.2747 56.5977 18.5898V18.7676C56.5977 20.2077 56.3197 21.502 55.7637 22.6504C55.2168 23.7897 54.4284 24.6784 53.3984 25.3164C52.3776 25.9544 51.2018 26.2734 49.8711 26.2734C47.8659 26.2734 46.2389 25.5762 44.9902 24.1816C43.7507 22.7871 43.1309 20.9414 43.1309 18.6445V18.4668ZM45.6738 18.7676C45.6738 20.4082 46.0521 21.7253 46.8086 22.7188C47.5742 23.7122 48.5951 24.209 49.8711 24.209C51.1562 24.209 52.1771 23.7077 52.9336 22.7051C53.6901 21.6934 54.0684 20.2806 54.0684 18.4668C54.0684 16.8444 53.681 15.5319 52.9062 14.5293C52.1406 13.5176 51.1198 13.0117 49.8438 13.0117C48.5951 13.0117 47.5879 13.5085 46.8223 14.502C46.0566 15.4954 45.6738 16.9173 45.6738 18.7676ZM66.9199 13.4766C66.5371 13.4128 66.1224 13.3809 65.6758 13.3809C64.0169 13.3809 62.8913 14.0872 62.2988 15.5V26H59.7695V11.207H62.2305L62.2715 12.916C63.1009 11.5944 64.2767 10.9336 65.7988 10.9336C66.291 10.9336 66.6647 10.9974 66.9199 11.125V13.4766ZM74.3438 22.2949L77.7891 11.207H80.4961L74.5488 28.2832C73.6283 30.7441 72.1654 31.9746 70.1602 31.9746L69.6816 31.9336L68.7383 31.7559V29.7051L69.4219 29.7598C70.2786 29.7598 70.944 29.5866 71.418 29.2402C71.901 28.8939 72.2975 28.2604 72.6074 27.3398L73.168 25.8359L67.8906 11.207H70.6523L74.3438 22.2949Z" fill="white"/>
<path d="M37.4434 43.998C38.5645 42.6217 40.0228 41.9336 41.8184 41.9336C44.9447 41.9336 46.5215 43.6973 46.5488 47.2246V57H44.0195V47.2109C44.0104 46.1445 43.7643 45.3561 43.2812 44.8457C42.8073 44.3353 42.0645 44.0801 41.0527 44.0801C40.2324 44.0801 39.5124 44.2988 38.8926 44.7363C38.2728 45.1738 37.7897 45.748 37.4434 46.459V57H34.9141V36H37.4434V43.998ZM53.084 57H50.5547V42.207H53.084V57ZM50.3496 38.2832C50.3496 37.873 50.4727 37.5267 50.7188 37.2441C50.974 36.9616 51.3477 36.8203 51.8398 36.8203C52.332 36.8203 52.7057 36.9616 52.9609 37.2441C53.2161 37.5267 53.3438 37.873 53.3438 38.2832C53.3438 38.6934 53.2161 39.0352 52.9609 39.3086C52.7057 39.582 52.332 39.7188 51.8398 39.7188C51.3477 39.7188 50.974 39.582 50.7188 39.3086C50.4727 39.0352 50.3496 38.6934 50.3496 38.2832ZM59.5371 42.207L59.6191 44.0664C60.7493 42.6445 62.2259 41.9336 64.0488 41.9336C67.1751 41.9336 68.752 43.6973 68.7793 47.2246V57H66.25V47.2109C66.2409 46.1445 65.9948 45.3561 65.5117 44.8457C65.0378 44.3353 64.2949 44.0801 63.2832 44.0801C62.4629 44.0801 61.7428 44.2988 61.123 44.7363C60.5033 45.1738 60.0202 45.748 59.6738 46.459V57H57.1445V42.207H59.5371ZM76.7227 50.1504L75.1367 51.8047V57H72.6074V36H75.1367V48.7012L76.4902 47.0742L81.0977 42.207H84.1738L78.418 48.3867L84.8438 57H81.877L76.7227 50.1504ZM89.5332 57H87.0039V42.207H89.5332V57ZM86.7988 38.2832C86.7988 37.873 86.9219 37.5267 87.168 37.2441C87.4232 36.9616 87.7969 36.8203 88.2891 36.8203C88.7812 36.8203 89.1549 36.9616 89.4102 37.2441C89.6654 37.5267 89.793 37.873 89.793 38.2832C89.793 38.6934 89.6654 39.0352 89.4102 39.3086C89.1549 39.582 88.7812 39.7188 88.2891 39.7188C87.7969 39.7188 87.4232 39.582 87.168 39.3086C86.9219 39.0352 86.7988 38.6934 86.7988 38.2832ZM95.9863 42.207L96.0684 44.0664C97.1986 42.6445 98.6751 41.9336 100.498 41.9336C103.624 41.9336 105.201 43.6973 105.229 47.2246V57H102.699V47.2109C102.69 46.1445 102.444 45.3561 101.961 44.8457C101.487 44.3353 100.744 44.0801 99.7324 44.0801C98.9121 44.0801 98.1921 44.2988 97.5723 44.7363C96.9525 45.1738 96.4694 45.748 96.123 46.459V57H93.5938V42.207H95.9863ZM108.441 49.4805C108.441 47.1745 108.975 45.3424 110.041 43.9844C111.107 42.6172 112.52 41.9336 114.279 41.9336C116.084 41.9336 117.492 42.5716 118.504 43.8477L118.627 42.207H120.938V56.6445C120.938 58.5586 120.368 60.0671 119.229 61.1699C118.098 62.2728 116.576 62.8242 114.662 62.8242C113.596 62.8242 112.552 62.5964 111.531 62.1406C110.51 61.6849 109.731 61.0605 109.193 60.2676L110.506 58.75C111.59 60.0898 112.917 60.7598 114.484 60.7598C115.715 60.7598 116.672 60.4134 117.355 59.7207C118.048 59.028 118.395 58.0527 118.395 56.7949V55.5234C117.383 56.6901 116.002 57.2734 114.252 57.2734C112.52 57.2734 111.117 56.5762 110.041 55.1816C108.975 53.7871 108.441 51.8867 108.441 49.4805ZM110.984 49.7676C110.984 51.4355 111.326 52.748 112.01 53.7051C112.693 54.653 113.65 55.127 114.881 55.127C116.476 55.127 117.647 54.4023 118.395 52.9531V46.1992C117.62 44.7865 116.458 44.0801 114.908 44.0801C113.678 44.0801 112.716 44.5586 112.023 45.5156C111.331 46.4727 110.984 47.89 110.984 49.7676Z" fill="white"/>
<path d="M41.0527 87.2734C39.0475 87.2734 37.416 86.6172 36.1582 85.3047C34.9004 83.9831 34.2715 82.2194 34.2715 80.0137V79.5488C34.2715 78.0814 34.5495 76.7734 35.1055 75.625C35.6706 74.4674 36.4544 73.5651 37.457 72.918C38.4688 72.2617 39.5625 71.9336 40.7383 71.9336C42.6615 71.9336 44.1562 72.5671 45.2227 73.834C46.2891 75.1009 46.8223 76.9147 46.8223 79.2754V80.3281H36.8008C36.8372 81.7865 37.2611 82.9668 38.0723 83.8691C38.8926 84.7624 39.9316 85.209 41.1895 85.209C42.0827 85.209 42.8392 85.0267 43.459 84.6621C44.0788 84.2975 44.6211 83.8145 45.0859 83.2129L46.6309 84.416C45.3913 86.321 43.5319 87.2734 41.0527 87.2734ZM40.7383 74.0117C39.7174 74.0117 38.8607 74.3854 38.168 75.1328C37.4753 75.8711 37.0469 76.9102 36.8828 78.25H44.293V78.0586C44.2201 76.7734 43.8737 75.7799 43.2539 75.0781C42.6341 74.3672 41.7956 74.0117 40.7383 74.0117ZM58.375 83.0762C58.375 82.3926 58.1152 81.8639 57.5957 81.4902C57.0853 81.1074 56.1875 80.7793 54.9023 80.5059C53.6263 80.2324 52.61 79.9043 51.8535 79.5215C51.1061 79.1387 50.5501 78.6829 50.1855 78.1543C49.8301 77.6257 49.6523 76.9967 49.6523 76.2676C49.6523 75.0553 50.1628 74.0299 51.1836 73.1914C52.2135 72.3529 53.526 71.9336 55.1211 71.9336C56.7982 71.9336 58.1562 72.3665 59.1953 73.2324C60.2435 74.0983 60.7676 75.2057 60.7676 76.5547H58.2246C58.2246 75.862 57.9284 75.265 57.3359 74.7637C56.7526 74.2624 56.0143 74.0117 55.1211 74.0117C54.2005 74.0117 53.4805 74.2122 52.9609 74.6133C52.4414 75.0143 52.1816 75.5384 52.1816 76.1855C52.1816 76.7962 52.4232 77.2565 52.9062 77.5664C53.3893 77.8763 54.2598 78.1725 55.5176 78.4551C56.7845 78.7376 57.8099 79.0749 58.5938 79.4668C59.3776 79.8587 59.9564 80.3327 60.3301 80.8887C60.7129 81.4355 60.9043 82.1055 60.9043 82.8984C60.9043 84.2201 60.3757 85.2819 59.3184 86.084C58.2611 86.877 56.8893 87.2734 55.2031 87.2734C54.0182 87.2734 52.9701 87.0638 52.0586 86.6445C51.1471 86.2253 50.4316 85.6419 49.9121 84.8945C49.4017 84.138 49.1465 83.3223 49.1465 82.4473H51.6758C51.7214 83.2949 52.0586 83.9694 52.6875 84.4707C53.3255 84.9629 54.1641 85.209 55.2031 85.209C56.1602 85.209 56.9258 85.0176 57.5 84.6348C58.0833 84.2428 58.375 83.7233 58.375 83.0762ZM66.9473 87H64.418V72.207H66.9473V87ZM64.2129 68.2832C64.2129 67.873 64.3359 67.5267 64.582 67.2441C64.8372 66.9616 65.2109 66.8203 65.7031 66.8203C66.1953 66.8203 66.569 66.9616 66.8242 67.2441C67.0794 67.5267 67.207 67.873 67.207 68.2832C67.207 68.6934 67.0794 69.0352 66.8242 69.3086C66.569 69.582 66.1953 69.7188 65.7031 69.7188C65.2109 69.7188 64.8372 69.582 64.582 69.3086C64.3359 69.0352 64.2129 68.6934 64.2129 68.2832ZM70.4062 79.4805C70.4062 77.1745 70.9395 75.3424 72.0059 73.9844C73.0723 72.6172 74.485 71.9336 76.2441 71.9336C78.0488 71.9336 79.457 72.5716 80.4688 73.8477L80.5918 72.207H82.9023V86.6445C82.9023 88.5586 82.3327 90.0671 81.1934 91.1699C80.0632 92.2728 78.541 92.8242 76.627 92.8242C75.5605 92.8242 74.5169 92.5964 73.4961 92.1406C72.4753 91.6849 71.696 91.0605 71.1582 90.2676L72.4707 88.75C73.5553 90.0898 74.8815 90.7598 76.4492 90.7598C77.6797 90.7598 78.6367 90.4134 79.3203 89.7207C80.013 89.028 80.3594 88.0527 80.3594 86.7949V85.5234C79.3477 86.6901 77.9668 87.2734 76.2168 87.2734C74.485 87.2734 73.0814 86.5762 72.0059 85.1816C70.9395 83.7871 70.4062 81.8867 70.4062 79.4805ZM72.9492 79.7676C72.9492 81.4355 73.291 82.748 73.9746 83.7051C74.6582 84.653 75.6152 85.127 76.8457 85.127C78.4408 85.127 79.612 84.4023 80.3594 82.9531V76.1992C79.5846 74.7865 78.4225 74.0801 76.873 74.0801C75.6426 74.0801 74.681 74.5586 73.9883 75.5156C73.2956 76.4727 72.9492 77.89 72.9492 79.7676ZM89.123 72.207L89.2051 74.0664C90.3353 72.6445 91.8118 71.9336 93.6348 71.9336C96.7611 71.9336 98.3379 73.6973 98.3652 77.2246V87H95.8359V77.2109C95.8268 76.1445 95.5807 75.3561 95.0977 74.8457C94.6237 74.3353 93.8809 74.0801 92.8691 74.0801C92.0488 74.0801 91.3288 74.2988 90.709 74.7363C90.0892 75.1738 89.6061 75.748 89.2598 76.459V87H86.7305V72.207H89.123Z" fill="white"/>
<path d="M44.0469 116.537C43.0625 117.695 41.6178 118.273 39.7129 118.273C38.1361 118.273 36.9329 117.818 36.1035 116.906C35.2832 115.986 34.8685 114.628 34.8594 112.832V103.207H37.3887V112.764C37.3887 115.006 38.3001 116.127 40.123 116.127C42.0553 116.127 43.3405 115.407 43.9785 113.967V103.207H46.5078V118H44.1016L44.0469 116.537ZM58.9766 114.076C58.9766 113.393 58.7168 112.864 58.1973 112.49C57.6868 112.107 56.7891 111.779 55.5039 111.506C54.2279 111.232 53.2116 110.904 52.4551 110.521C51.7077 110.139 51.1517 109.683 50.7871 109.154C50.4316 108.626 50.2539 107.997 50.2539 107.268C50.2539 106.055 50.7643 105.03 51.7852 104.191C52.8151 103.353 54.1276 102.934 55.7227 102.934C57.3997 102.934 58.7578 103.367 59.7969 104.232C60.8451 105.098 61.3691 106.206 61.3691 107.555H58.8262C58.8262 106.862 58.5299 106.265 57.9375 105.764C57.3542 105.262 56.6159 105.012 55.7227 105.012C54.8021 105.012 54.082 105.212 53.5625 105.613C53.043 106.014 52.7832 106.538 52.7832 107.186C52.7832 107.796 53.0247 108.257 53.5078 108.566C53.9909 108.876 54.8613 109.173 56.1191 109.455C57.3861 109.738 58.4115 110.075 59.1953 110.467C59.9792 110.859 60.5579 111.333 60.9316 111.889C61.3145 112.436 61.5059 113.105 61.5059 113.898C61.5059 115.22 60.9772 116.282 59.9199 117.084C58.8626 117.877 57.4909 118.273 55.8047 118.273C54.6198 118.273 53.5716 118.064 52.6602 117.645C51.7487 117.225 51.0332 116.642 50.5137 115.895C50.0033 115.138 49.748 114.322 49.748 113.447H52.2773C52.3229 114.295 52.6602 114.969 53.2891 115.471C53.9271 115.963 54.7656 116.209 55.8047 116.209C56.7617 116.209 57.5273 116.018 58.1016 115.635C58.6849 115.243 58.9766 114.723 58.9766 114.076ZM68.2324 99.625V103.207H70.9941V105.162H68.2324V114.336C68.2324 114.928 68.3555 115.375 68.6016 115.676C68.8477 115.967 69.2669 116.113 69.8594 116.113C70.151 116.113 70.5521 116.059 71.0625 115.949V118C70.3971 118.182 69.75 118.273 69.1211 118.273C67.9909 118.273 67.1387 117.932 66.5645 117.248C65.9902 116.564 65.7031 115.594 65.7031 114.336V105.162H63.0098V103.207H65.7031V99.625H68.2324ZM73.0176 110.467C73.0176 109.018 73.3001 107.714 73.8652 106.557C74.4395 105.399 75.2324 104.506 76.2441 103.877C77.265 103.248 78.4271 102.934 79.7305 102.934C81.7448 102.934 83.3717 103.631 84.6113 105.025C85.86 106.42 86.4844 108.275 86.4844 110.59V110.768C86.4844 112.208 86.2064 113.502 85.6504 114.65C85.1035 115.79 84.3151 116.678 83.2852 117.316C82.2643 117.954 81.0885 118.273 79.7578 118.273C77.7526 118.273 76.1257 117.576 74.877 116.182C73.6374 114.787 73.0176 112.941 73.0176 110.645V110.467ZM75.5605 110.768C75.5605 112.408 75.9388 113.725 76.6953 114.719C77.4609 115.712 78.4818 116.209 79.7578 116.209C81.043 116.209 82.0638 115.708 82.8203 114.705C83.5768 113.693 83.9551 112.281 83.9551 110.467C83.9551 108.844 83.5677 107.532 82.793 106.529C82.0273 105.518 81.0065 105.012 79.7305 105.012C78.4818 105.012 77.4746 105.508 76.709 106.502C75.9434 107.495 75.5605 108.917 75.5605 110.768ZM92.0352 103.207L92.1035 104.848C93.1882 103.572 94.651 102.934 96.4922 102.934C98.5612 102.934 99.9694 103.727 100.717 105.312C101.209 104.602 101.847 104.027 102.631 103.59C103.424 103.152 104.358 102.934 105.434 102.934C108.678 102.934 110.328 104.652 110.383 108.088V118H107.854V108.238C107.854 107.181 107.612 106.393 107.129 105.873C106.646 105.344 105.835 105.08 104.695 105.08C103.757 105.08 102.977 105.363 102.357 105.928C101.738 106.484 101.378 107.236 101.277 108.184V118H98.7344V108.307C98.7344 106.156 97.6816 105.08 95.5762 105.08C93.9173 105.08 92.7826 105.786 92.1719 107.199V118H89.6426V103.207H92.0352ZM120.35 118.273C118.344 118.273 116.713 117.617 115.455 116.305C114.197 114.983 113.568 113.219 113.568 111.014V110.549C113.568 109.081 113.846 107.773 114.402 106.625C114.967 105.467 115.751 104.565 116.754 103.918C117.766 103.262 118.859 102.934 120.035 102.934C121.958 102.934 123.453 103.567 124.52 104.834C125.586 106.101 126.119 107.915 126.119 110.275V111.328H116.098C116.134 112.786 116.558 113.967 117.369 114.869C118.189 115.762 119.229 116.209 120.486 116.209C121.38 116.209 122.136 116.027 122.756 115.662C123.376 115.298 123.918 114.814 124.383 114.213L125.928 115.416C124.688 117.321 122.829 118.273 120.35 118.273ZM120.035 105.012C119.014 105.012 118.158 105.385 117.465 106.133C116.772 106.871 116.344 107.91 116.18 109.25H123.59V109.059C123.517 107.773 123.171 106.78 122.551 106.078C121.931 105.367 121.092 105.012 120.035 105.012ZM136.209 105.477C135.826 105.413 135.411 105.381 134.965 105.381C133.306 105.381 132.18 106.087 131.588 107.5V118H129.059V103.207H131.52L131.561 104.916C132.39 103.594 133.566 102.934 135.088 102.934C135.58 102.934 135.954 102.997 136.209 103.125V105.477ZM147.16 114.076C147.16 113.393 146.9 112.864 146.381 112.49C145.87 112.107 144.973 111.779 143.688 111.506C142.411 111.232 141.395 110.904 140.639 110.521C139.891 110.139 139.335 109.683 138.971 109.154C138.615 108.626 138.438 107.997 138.438 107.268C138.438 106.055 138.948 105.03 139.969 104.191C140.999 103.353 142.311 102.934 143.906 102.934C145.583 102.934 146.941 103.367 147.98 104.232C149.029 105.098 149.553 106.206 149.553 107.555H147.01C147.01 106.862 146.714 106.265 146.121 105.764C145.538 105.262 144.799 105.012 143.906 105.012C142.986 105.012 142.266 105.212 141.746 105.613C141.227 106.014 140.967 106.538 140.967 107.186C140.967 107.796 141.208 108.257 141.691 108.566C142.174 108.876 143.045 109.173 144.303 109.455C145.57 109.738 146.595 110.075 147.379 110.467C148.163 110.859 148.742 111.333 149.115 111.889C149.498 112.436 149.689 113.105 149.689 113.898C149.689 115.22 149.161 116.282 148.104 117.084C147.046 117.877 145.674 118.273 143.988 118.273C142.803 118.273 141.755 118.064 140.844 117.645C139.932 117.225 139.217 116.642 138.697 115.895C138.187 115.138 137.932 114.322 137.932 113.447H140.461C140.507 114.295 140.844 114.969 141.473 115.471C142.111 115.963 142.949 116.209 143.988 116.209C144.945 116.209 145.711 116.018 146.285 115.635C146.868 115.243 147.16 114.723 147.16 114.076Z" fill="white"/>
</svg>
