<svg width="24" height="48" viewBox="0 0 24 48" fill="none" xmlns="http://www.w3.org/2000/svg">
<path d="M5 24C5 25.3845 5.41054 26.7378 6.17971 27.889C6.94888 29.0401 8.04213 29.9373 9.32121 30.4672C10.6003 30.997 12.0078 31.1356 13.3656 30.8655C14.7235 30.5954 15.9708 29.9287 16.9497 28.9497C17.9287 27.9708 18.5954 26.7235 18.8655 25.3656C19.1356 24.0078 18.997 22.6003 18.4672 21.3212C17.9373 20.0421 17.0401 18.9489 15.889 18.1797C14.7378 17.4105 13.3845 17 12 17C10.1435 17 8.36301 17.7375 7.05025 19.0503C5.7375 20.363 5 22.1435 5 24ZM15.5 24C15.5 24.6922 15.2947 25.3689 14.9101 25.9445C14.5256 26.5201 13.9789 26.9687 13.3394 27.2336C12.6999 27.4985 11.9961 27.5678 11.3172 27.4327C10.6382 27.2977 10.0146 26.9644 9.52513 26.4749C9.03564 25.9854 8.7023 25.3617 8.56725 24.6828C8.4322 24.0039 8.50151 23.3001 8.76642 22.6606C9.03133 22.0211 9.47993 21.4744 10.0555 21.0899C10.6311 20.7053 11.3078 20.5 12 20.5C12.9283 20.5 13.8185 20.8687 14.4749 21.5251C15.1312 22.1815 15.5 23.0717 15.5 24Z" fill="white"/>
<path d="M12 43.2945L2.4 34L0 36.361L12 48L24 36.361L21.5829 34.0166L12 43.2945Z" fill="white"/>
<path d="M12 4.71106L21.5657 13.9834L24 11.6528L12 0L0 11.6528L2.41714 14L12 4.71106Z" fill="white"/>
</svg>
