<svg width="265" height="46" viewBox="0 0 265 46" fill="none" xmlns="http://www.w3.org/2000/svg">
<path d="M81.1316 8.80055C77.0127 7.79588 72.7732 7.43686 68.9177 9.53588C67.3745 10.376 65.1038 11.682 64.5356 13.4883C63.5431 16.6439 69.7715 18.6133 71.6371 19.3863C75.2335 20.8764 79.002 21.8862 82.6078 23.3387C83.8705 23.8473 84.8252 24.5024 82.9341 25.0698C78.5529 26.3843 73.4954 26.2042 68.9799 26.4332C63.9873 26.6864 58.9968 26.8768 54 27" stroke="white" stroke-width="3" stroke-linecap="round" stroke-linejoin="round"/>
<path d="M100 2C95.0617 8.36606 90.3363 15.0195 86.3745 22.0613C83.6849 26.8418 81.3099 31.8162 79.3278 36.9425C78.7247 38.5025 78 40.2737 78 42" stroke="white" stroke-width="3" stroke-linecap="round" stroke-linejoin="round"/>
<path d="M67 19C78.2954 18.3216 89.595 18.2562 100.889 17.3529C109.931 16.6298 118.947 15.5856 128 15" stroke="white" stroke-width="3" stroke-linecap="round" stroke-linejoin="round"/>
<path d="M110.828 9C106.179 11.4857 98.1207 14.8876 97.0817 21.0344C95.6633 29.4261 113.132 24.937 116.478 23.6065C119.598 22.3657 125.171 20.015 125.936 16.1396C126.649 12.5286 121.224 11.1333 118.815 10.6836C115.126 9.99486 110.328 9.69385 106.989 11.806C104.926 13.1109 105.352 14.8857 105.812 16.8567" stroke="white" stroke-width="3" stroke-linecap="round" stroke-linejoin="round"/>
<path d="M135 6C130.947 13.7662 128.602 22.1097 125.198 30.1306C124.81 31.0461 123.427 34.2469 121.849 32.4737C120.931 31.4427 120.974 29.2437 121.019 28.0006C121.156 24.2516 123.12 20.9078 125.383 18.0045C126.127 17.0495 132.748 10.3031 133.894 12.5728" stroke="white" stroke-width="3" stroke-linecap="round" stroke-linejoin="round"/>
<path d="M147 11C144.467 13.6294 142.913 16.3456 141.485 19.5426C141.003 20.6204 140.688 22.0945 140 23" stroke="white" stroke-width="3" stroke-linecap="round" stroke-linejoin="round"/>
<path d="M152.045 19.6563C157.317 19.0143 163.242 18.049 167.729 15.0313C172.878 11.5689 160.826 11.0101 159.245 11.0001C155.885 10.979 143.013 13.8004 146.637 19.6563C148.222 22.2167 151.879 23.2166 154.614 23.9063C157.826 24.7162 161.03 24.8955 164.319 25" stroke="white" stroke-width="3" stroke-linecap="round" stroke-linejoin="round"/>
<path d="M187.721 11.2338C185.219 10.9711 182.719 10.9452 180.206 11.0795C177.801 11.208 174.088 11.1147 171.995 12.6063C170.717 13.5163 176.539 15.4526 176.804 15.5519C181.474 17.3077 186.326 18.5208 191.03 20.1786C191.836 20.4624 193.39 21.0155 194.262 21.4432C194.325 21.4742 195.265 21.793 194.927 22.2143C194.502 22.7436 193.018 22.9631 192.669 23.0317C189.181 23.7172 185.592 23.9432 182.061 24.2808C175.993 24.8611 169.706 25.2121 163.845 27.026C162.475 27.4502 161.538 27.7478 161 29" stroke="white" stroke-width="3" stroke-linecap="round" stroke-linejoin="round"/>
<path d="M2 44C42.7064 39.541 83.2762 40.0145 124.131 40.0145C170.371 40.0145 216.782 42.9685 263 40.5839" stroke="white" stroke-width="3" stroke-linecap="round" stroke-linejoin="round"/>
</svg>
