<svg width="377" height="110" viewBox="0 0 377 110" fill="none" xmlns="http://www.w3.org/2000/svg">
<path d="M5.39554 72C4.89687 72 4.47754 71.83 4.13754 71.49C3.79754 71.15 3.62754 70.7307 3.62754 70.232V47.214C3.62754 46.6927 3.79754 46.2733 4.13754 45.956C4.47754 45.616 4.89687 45.446 5.39554 45.446H13.5215C15.0629 45.446 16.4115 45.752 17.5675 46.364C18.7462 46.9533 19.6642 47.7807 20.3215 48.846C21.0015 49.9113 21.3415 51.1353 21.3415 52.518C21.3415 53.6287 21.0355 54.6373 20.4235 55.544C19.8342 56.428 19.0182 57.1307 17.9755 57.652C19.4715 58.0147 20.6729 58.7287 21.5795 59.794C22.4862 60.8593 22.9395 62.2533 22.9395 63.976C22.9395 65.54 22.5655 66.9227 21.8175 68.124C21.0922 69.3253 20.0722 70.2773 18.7575 70.98C17.4429 71.66 15.9355 72 14.2355 72H5.39554ZM7.16354 56.36H13.5215C14.8135 56.36 15.8675 56.0427 16.6835 55.408C17.5222 54.7733 17.9415 53.81 17.9415 52.518C17.9415 51.226 17.5222 50.274 16.6835 49.662C15.8675 49.0273 14.8135 48.71 13.5215 48.71H7.16354V56.36ZM7.16354 68.736H14.2355C15.7769 68.736 17.0462 68.3393 18.0435 67.546C19.0409 66.73 19.5395 65.54 19.5395 63.976C19.5395 62.5253 19.0409 61.4373 18.0435 60.712C17.0462 59.9867 15.7769 59.624 14.2355 59.624H7.16354V68.736ZM39.4338 72.34C37.5978 72.34 35.8751 72 34.2658 71.32C32.6791 70.6173 31.2851 69.654 30.0838 68.43C28.9051 67.1833 27.9758 65.7327 27.2958 64.078C26.6385 62.4233 26.3098 60.6327 26.3098 58.706C26.3098 56.802 26.6385 55.034 27.2958 53.402C27.9758 51.7473 28.9051 50.308 30.0838 49.084C31.2851 47.8373 32.6791 46.8627 34.2658 46.16C35.8525 45.4573 37.5751 45.106 39.4338 45.106C41.1791 45.106 42.6751 45.3327 43.9218 45.786C45.1911 46.2393 46.4605 46.9873 47.7298 48.03C48.0018 48.2567 48.1831 48.472 48.2738 48.676C48.3645 48.88 48.4098 49.1293 48.4098 49.424C48.4098 49.8547 48.2511 50.2173 47.9338 50.512C47.6391 50.784 47.2765 50.9427 46.8458 50.988C46.4151 51.0107 45.9958 50.8633 45.5878 50.546C44.7491 49.8207 43.8765 49.2653 42.9698 48.88C42.0858 48.4947 40.9071 48.302 39.4338 48.302C38.0965 48.302 36.8385 48.574 35.6598 49.118C34.4811 49.662 33.4385 50.41 32.5318 51.362C31.6478 52.314 30.9565 53.4247 30.4578 54.694C29.9591 55.9407 29.7098 57.278 29.7098 58.706C29.7098 60.1567 29.9591 61.5167 30.4578 62.786C30.9565 64.0327 31.6478 65.132 32.5318 66.084C33.4385 67.036 34.4811 67.784 35.6598 68.328C36.8385 68.8493 38.0965 69.11 39.4338 69.11C40.5898 69.11 41.6778 68.9173 42.6978 68.532C43.7405 68.124 44.7378 67.5687 45.6898 66.866C46.0978 66.5713 46.4945 66.4467 46.8798 66.492C47.2878 66.5147 47.6278 66.6733 47.8998 66.968C48.1718 67.24 48.3078 67.6253 48.3078 68.124C48.3078 68.6 48.1265 69.0193 47.7638 69.382C45.3158 71.354 42.5391 72.34 39.4338 72.34ZM55.7315 72C55.2328 72 54.8135 71.83 54.4735 71.49C54.1335 71.15 53.9635 70.7307 53.9635 70.232V47.214C53.9635 46.6927 54.1335 46.2733 54.4735 45.956C54.8135 45.616 55.2328 45.446 55.7315 45.446H71.0995C71.6208 45.446 72.0401 45.6047 72.3575 45.922C72.6748 46.2167 72.8335 46.6133 72.8335 47.112C72.8335 47.588 72.6748 47.9733 72.3575 48.268C72.0401 48.5627 71.6208 48.71 71.0995 48.71H57.4995V56.972H67.2575C67.7788 56.972 68.1981 57.1307 68.5155 57.448C68.8328 57.7427 68.9915 58.128 68.9915 58.604C68.9915 59.08 68.8328 59.4767 68.5155 59.794C68.1981 60.0887 67.7788 60.236 67.2575 60.236H57.4995V68.736H71.0995C71.6208 68.736 72.0401 68.8833 72.3575 69.178C72.6748 69.4727 72.8335 69.858 72.8335 70.334C72.8335 70.8327 72.6748 71.2407 72.3575 71.558C72.0401 71.8527 71.6208 72 71.0995 72H55.7315ZM79.5381 72C79.0395 72 78.6201 71.83 78.2801 71.49C77.9401 71.15 77.7701 70.7307 77.7701 70.232V47.214C77.7701 46.6927 77.9401 46.2733 78.2801 45.956C78.6201 45.616 79.0395 45.446 79.5381 45.446C80.2181 45.446 80.7395 45.7633 81.1021 46.398L91.2001 66.628L101.026 46.398C101.389 45.7633 101.91 45.446 102.59 45.446C103.089 45.446 103.508 45.616 103.848 45.956C104.188 46.2733 104.358 46.6927 104.358 47.214V70.232C104.358 70.7307 104.177 71.15 103.814 71.49C103.474 71.83 103.066 72 102.59 72C102.091 72 101.672 71.83 101.332 71.49C100.992 71.15 100.822 70.7307 100.822 70.232V53.334L92.5941 70.096C92.2088 70.6853 91.6988 70.98 91.0641 70.98C90.3161 70.98 89.7721 70.6287 89.4321 69.926L81.3061 53.64V70.232C81.3061 70.7307 81.1361 71.15 80.7961 71.49C80.4561 71.83 80.0368 72 79.5381 72Z" fill="white"/>
<g filter="url(#filter0_d)">
<rect x="36.5" y="25.5" width="34" height="64" stroke="white" stroke-opacity="0.8"/>
</g>
<path d="M39.5852 72.34C37.7492 72.34 36.0265 72 34.4172 71.32C32.8305 70.6173 31.4365 69.654 30.2352 68.43C29.0565 67.1833 28.1272 65.7327 27.4472 64.078C26.7898 62.4233 26.4612 60.6327 26.4612 58.706C26.4612 56.802 26.7898 55.034 27.4472 53.402C28.1272 51.7473 29.0565 50.308 30.2352 49.084C31.4365 47.8373 32.8305 46.8627 34.4172 46.16C36.0038 45.4573 37.7265 45.106 39.5852 45.106C41.3305 45.106 42.8265 45.3327 44.0732 45.786C45.3425 46.2393 46.6118 46.9873 47.8812 48.03C48.1532 48.2567 48.3345 48.472 48.4252 48.676C48.5158 48.88 48.5612 49.1293 48.5612 49.424C48.5612 49.8547 48.4025 50.2173 48.0852 50.512C47.7905 50.784 47.4278 50.9427 46.9972 50.988C46.5665 51.0107 46.1472 50.8633 45.7392 50.546C44.9005 49.8207 44.0278 49.2653 43.1212 48.88C42.2372 48.4947 41.0585 48.302 39.5852 48.302C38.2478 48.302 36.9898 48.574 35.8112 49.118C34.6325 49.662 33.5898 50.41 32.6832 51.362C31.7992 52.314 31.1078 53.4247 30.6092 54.694C30.1105 55.9407 29.8612 57.278 29.8612 58.706C29.8612 60.1567 30.1105 61.5167 30.6092 62.786C31.1078 64.0327 31.7992 65.132 32.6832 66.084C33.5898 67.036 34.6325 67.784 35.8112 68.328C36.9898 68.8493 38.2478 69.11 39.5852 69.11C40.7412 69.11 41.8292 68.9173 42.8492 68.532C43.8918 68.124 44.8892 67.5687 45.8412 66.866C46.2492 66.5713 46.6458 66.4467 47.0312 66.492C47.4392 66.5147 47.7792 66.6733 48.0512 66.968C48.3232 67.24 48.4592 67.6253 48.4592 68.124C48.4592 68.6 48.2778 69.0193 47.9152 69.382C45.4672 71.354 42.6905 72.34 39.5852 72.34Z" fill="white"/>
<rect x="103" y="59" width="39" height="2" fill="white"/>
<rect x="140" y="28" width="2" height="64" fill="white"/>
<rect x="140" y="28" width="40" height="2" fill="white"/>
<rect x="140" y="90" width="40" height="2" fill="white"/>
<path d="M190.346 15.017C190.097 15.017 189.898 14.9377 189.751 14.779C189.604 14.609 189.53 14.3993 189.53 14.15V6.568C189.53 6.30733 189.604 6.09767 189.751 5.939C189.898 5.78033 190.097 5.701 190.346 5.701C190.607 5.701 190.816 5.78033 190.975 5.939C191.145 6.09767 191.23 6.30733 191.23 6.568V9.407H192.522L195.599 5.973C195.746 5.81433 195.95 5.72367 196.211 5.701C196.483 5.67833 196.693 5.735 196.84 5.871C197.01 6.02967 197.106 6.211 197.129 6.415C197.152 6.60767 197.089 6.78333 196.942 6.942L193.865 10.24L197.129 13.742C197.276 13.8893 197.35 14.065 197.35 14.269C197.35 14.4617 197.259 14.6373 197.078 14.796C196.931 14.932 196.721 15 196.449 15C196.188 14.9887 195.984 14.9093 195.837 14.762L192.335 11.005H191.23V14.15C191.23 14.3993 191.145 14.609 190.975 14.779C190.816 14.9377 190.607 15.017 190.346 15.017ZM200.341 15.017C200.092 15.017 199.882 14.9377 199.712 14.779C199.554 14.609 199.474 14.3993 199.474 14.15V6.585C199.474 6.32433 199.554 6.11467 199.712 5.956C199.882 5.79733 200.092 5.718 200.341 5.718C200.602 5.718 200.812 5.79733 200.97 5.956C201.129 6.11467 201.208 6.313 201.208 6.551C201.503 6.25633 201.854 6.02967 202.262 5.871C202.67 5.701 203.112 5.616 203.588 5.616C204.778 5.616 205.674 6.06367 206.274 6.959C206.603 6.53967 207.022 6.211 207.532 5.973C208.042 5.735 208.615 5.616 209.249 5.616C210.224 5.616 211.017 5.93333 211.629 6.568C212.241 7.20267 212.547 8.10933 212.547 9.288V14.15C212.547 14.3993 212.468 14.609 212.309 14.779C212.151 14.9377 211.941 15.017 211.68 15.017C211.431 15.017 211.221 14.9377 211.051 14.779C210.893 14.609 210.813 14.3993 210.813 14.15V9.288C210.813 8.574 210.638 8.047 210.286 7.707C209.935 7.35567 209.476 7.18 208.909 7.18C208.32 7.18 207.833 7.384 207.447 7.792C207.073 8.2 206.886 8.72133 206.886 9.356V14.15C206.886 14.3993 206.807 14.609 206.648 14.779C206.49 14.9377 206.28 15.017 206.019 15.017C205.77 15.017 205.56 14.9377 205.39 14.779C205.232 14.609 205.152 14.3993 205.152 14.15V9.288C205.152 8.574 204.977 8.047 204.625 7.707C204.274 7.35567 203.815 7.18 203.248 7.18C202.659 7.18 202.172 7.384 201.786 7.792C201.401 8.2 201.208 8.72133 201.208 9.356V14.15C201.208 14.3993 201.129 14.609 200.97 14.779C200.812 14.9377 200.602 15.017 200.341 15.017ZM219.644 15.068C218.726 15.068 217.916 14.8697 217.213 14.473C216.511 14.065 215.955 13.5097 215.547 12.807C215.151 12.093 214.952 11.277 214.952 10.359C214.952 9.42967 215.151 8.61367 215.547 7.911C215.955 7.197 216.511 6.64167 217.213 6.245C217.916 5.837 218.726 5.633 219.644 5.633C220.551 5.633 221.356 5.837 222.058 6.245C222.761 6.64167 223.311 7.197 223.707 7.911C224.115 8.61367 224.319 9.42967 224.319 10.359C224.319 11.277 224.121 12.093 223.724 12.807C223.328 13.5097 222.778 14.065 222.075 14.473C221.373 14.8697 220.562 15.068 219.644 15.068ZM219.644 13.538C220.234 13.538 220.755 13.402 221.208 13.13C221.662 12.858 222.013 12.484 222.262 12.008C222.523 11.532 222.653 10.9823 222.653 10.359C222.653 9.73567 222.523 9.186 222.262 8.71C222.013 8.22267 221.662 7.843 221.208 7.571C220.755 7.299 220.234 7.163 219.644 7.163C219.055 7.163 218.534 7.299 218.08 7.571C217.627 7.843 217.27 8.22267 217.009 8.71C216.749 9.186 216.618 9.73567 216.618 10.359C216.618 10.9823 216.749 11.532 217.009 12.008C217.27 12.484 217.627 12.858 218.08 13.13C218.534 13.402 219.055 13.538 219.644 13.538ZM231.915 15C231.688 15 231.507 14.932 231.371 14.796C231.246 14.6487 231.184 14.473 231.184 14.269C231.184 14.065 231.263 13.861 231.422 13.657L234.057 10.359L231.252 7.044C231.104 6.86267 231.025 6.67 231.014 6.466C231.002 6.25067 231.059 6.06933 231.184 5.922C231.308 5.77467 231.495 5.701 231.745 5.701C232.017 5.701 232.232 5.79733 232.391 5.99L235.179 9.322L237.678 5.99C237.768 5.87667 237.865 5.803 237.967 5.769C238.069 5.72367 238.182 5.701 238.307 5.701C238.556 5.701 238.743 5.78033 238.868 5.939C238.992 6.08633 239.049 6.26767 239.038 6.483C239.038 6.69833 238.958 6.908 238.8 7.112L236.233 10.461L238.936 13.691C239.106 13.895 239.185 14.099 239.174 14.303C239.174 14.4957 239.1 14.66 238.953 14.796C238.817 14.932 238.635 15 238.409 15C238.295 15 238.188 14.983 238.086 14.949C237.984 14.915 237.887 14.8413 237.797 14.728L235.094 11.498L232.527 14.728C232.357 14.9093 232.153 15 231.915 15ZM244.713 15.068C243.795 15.068 242.984 14.8697 242.282 14.473C241.579 14.065 241.024 13.5097 240.616 12.807C240.219 12.093 240.021 11.277 240.021 10.359C240.021 9.42967 240.219 8.61367 240.616 7.911C241.024 7.197 241.579 6.64167 242.282 6.245C242.984 5.837 243.795 5.633 244.713 5.633C245.619 5.633 246.424 5.837 247.127 6.245C247.829 6.64167 248.379 7.197 248.776 7.911C249.184 8.61367 249.388 9.42967 249.388 10.359C249.388 11.277 249.189 12.093 248.793 12.807C248.396 13.5097 247.846 14.065 247.144 14.473C246.441 14.8697 245.631 15.068 244.713 15.068ZM244.713 13.538C245.302 13.538 245.823 13.402 246.277 13.13C246.73 12.858 247.081 12.484 247.331 12.008C247.591 11.532 247.722 10.9823 247.722 10.359C247.722 9.73567 247.591 9.186 247.331 8.71C247.081 8.22267 246.73 7.843 246.277 7.571C245.823 7.299 245.302 7.163 244.713 7.163C244.123 7.163 243.602 7.299 243.149 7.571C242.695 7.843 242.338 8.22267 242.078 8.71C241.817 9.186 241.687 9.73567 241.687 10.359C241.687 10.9823 241.817 11.532 242.078 12.008C242.338 12.484 242.695 12.858 243.149 13.13C243.602 13.402 244.123 13.538 244.713 13.538ZM254.79 12.212C253.974 12.212 253.3 12.025 252.767 11.651C252.235 11.277 251.838 10.767 251.577 10.121C251.328 9.46367 251.203 8.71 251.203 7.86V6.568C251.203 6.30733 251.283 6.09767 251.441 5.939C251.611 5.78033 251.821 5.701 252.07 5.701C252.331 5.701 252.541 5.78033 252.699 5.939C252.858 6.09767 252.937 6.30733 252.937 6.568V7.86C252.937 8.676 253.096 9.34467 253.413 9.866C253.742 10.3873 254.314 10.648 255.13 10.648C255.776 10.648 256.303 10.5403 256.711 10.325C257.131 10.1097 257.34 9.832 257.34 9.492V6.568C257.34 6.30733 257.42 6.09767 257.578 5.939C257.748 5.78033 257.958 5.701 258.207 5.701C258.468 5.701 258.678 5.78033 258.836 5.939C258.995 6.09767 259.074 6.30733 259.074 6.568V14.133C259.074 14.3823 258.995 14.592 258.836 14.762C258.678 14.9207 258.468 15 258.207 15C257.958 15 257.748 14.9207 257.578 14.762C257.42 14.592 257.34 14.3823 257.34 14.133V11.396C257.034 11.6567 256.66 11.8607 256.218 12.008C255.788 12.144 255.312 12.212 254.79 12.212ZM266.498 15.068C265.557 15.068 264.718 14.8697 263.982 14.473C263.256 14.065 262.684 13.5097 262.265 12.807C261.857 12.093 261.653 11.277 261.653 10.359C261.653 9.42967 261.845 8.61367 262.231 7.911C262.627 7.197 263.171 6.64167 263.863 6.245C264.554 5.837 265.347 5.633 266.243 5.633C267.127 5.633 267.886 5.83133 268.521 6.228C269.155 6.61333 269.637 7.15167 269.966 7.843C270.306 8.523 270.476 9.31067 270.476 10.206C270.476 10.4213 270.402 10.6027 270.255 10.75C270.107 10.886 269.92 10.954 269.694 10.954H263.234C263.358 11.736 263.715 12.3763 264.305 12.875C264.905 13.3623 265.636 13.606 266.498 13.606C266.849 13.606 267.206 13.5437 267.569 13.419C267.943 13.283 268.243 13.13 268.47 12.96C268.64 12.8353 268.821 12.773 269.014 12.773C269.218 12.7617 269.393 12.8183 269.541 12.943C269.733 13.113 269.835 13.3 269.847 13.504C269.858 13.708 269.767 13.8837 269.575 14.031C269.189 14.337 268.708 14.5863 268.13 14.779C267.563 14.9717 267.019 15.068 266.498 15.068ZM266.243 7.095C265.404 7.095 264.73 7.32733 264.22 7.792C263.71 8.25667 263.387 8.85733 263.251 9.594H268.912C268.81 8.86867 268.532 8.27367 268.079 7.809C267.625 7.333 267.013 7.095 266.243 7.095ZM273.554 15.017C273.305 15.017 273.095 14.9377 272.925 14.779C272.767 14.609 272.687 14.3993 272.687 14.15V6.585C272.687 6.32433 272.767 6.11467 272.925 5.956C273.095 5.79733 273.305 5.718 273.554 5.718C273.815 5.718 274.025 5.79733 274.183 5.956C274.342 6.11467 274.421 6.313 274.421 6.551C274.716 6.25633 275.067 6.02967 275.475 5.871C275.883 5.701 276.325 5.616 276.801 5.616C277.991 5.616 278.887 6.06367 279.487 6.959C279.816 6.53967 280.235 6.211 280.745 5.973C281.255 5.735 281.828 5.616 282.462 5.616C283.437 5.616 284.23 5.93333 284.842 6.568C285.454 7.20267 285.76 8.10933 285.76 9.288V14.15C285.76 14.3993 285.681 14.609 285.522 14.779C285.364 14.9377 285.154 15.017 284.893 15.017C284.644 15.017 284.434 14.9377 284.264 14.779C284.106 14.609 284.026 14.3993 284.026 14.15V9.288C284.026 8.574 283.851 8.047 283.499 7.707C283.148 7.35567 282.689 7.18 282.122 7.18C281.533 7.18 281.046 7.384 280.66 7.792C280.286 8.2 280.099 8.72133 280.099 9.356V14.15C280.099 14.3993 280.02 14.609 279.861 14.779C279.703 14.9377 279.493 15.017 279.232 15.017C278.983 15.017 278.773 14.9377 278.603 14.779C278.445 14.609 278.365 14.3993 278.365 14.15V9.288C278.365 8.574 278.19 8.047 277.838 7.707C277.487 7.35567 277.028 7.18 276.461 7.18C275.872 7.18 275.385 7.384 274.999 7.792C274.614 8.2 274.421 8.72133 274.421 9.356V14.15C274.421 14.3993 274.342 14.609 274.183 14.779C274.025 14.9377 273.815 15.017 273.554 15.017ZM190.397 37.978C190.148 37.978 189.938 37.893 189.768 37.723C189.609 37.5643 189.53 37.3603 189.53 37.111V29.359C189.541 28.4637 189.751 27.659 190.159 26.945C190.567 26.231 191.122 25.67 191.825 25.262C192.528 24.8427 193.321 24.633 194.205 24.633C195.1 24.633 195.899 24.8427 196.602 25.262C197.305 25.67 197.86 26.231 198.268 26.945C198.687 27.659 198.897 28.4637 198.897 29.359C198.897 30.2543 198.704 31.059 198.319 31.773C197.945 32.4757 197.429 33.0367 196.772 33.456C196.115 33.864 195.372 34.068 194.545 34.068C193.876 34.068 193.259 33.932 192.692 33.66C192.137 33.3767 191.661 32.997 191.264 32.521V37.111C191.264 37.3603 191.185 37.5643 191.026 37.723C190.867 37.893 190.658 37.978 190.397 37.978ZM194.205 32.538C194.783 32.538 195.299 32.402 195.752 32.13C196.205 31.8467 196.562 31.467 196.823 30.991C197.095 30.5037 197.231 29.9597 197.231 29.359C197.231 28.747 197.095 28.203 196.823 27.727C196.562 27.2397 196.205 26.86 195.752 26.588C195.299 26.3047 194.783 26.163 194.205 26.163C193.638 26.163 193.123 26.3047 192.658 26.588C192.205 26.86 191.848 27.2397 191.587 27.727C191.326 28.203 191.196 28.747 191.196 29.359C191.196 29.9597 191.326 30.5037 191.587 30.991C191.848 31.467 192.205 31.8467 192.658 32.13C193.123 32.402 193.638 32.538 194.205 32.538ZM205.359 34.068C204.532 34.068 203.789 33.864 203.132 33.456C202.475 33.0367 201.953 32.4757 201.568 31.773C201.194 31.059 201.007 30.2543 201.007 29.359C201.007 28.4637 201.211 27.659 201.619 26.945C202.038 26.231 202.599 25.67 203.302 25.262C204.016 24.8427 204.815 24.633 205.699 24.633C206.583 24.633 207.376 24.8427 208.079 25.262C208.782 25.67 209.337 26.231 209.745 26.945C210.164 27.659 210.374 28.4637 210.374 29.359V33.15C210.374 33.3993 210.289 33.609 210.119 33.779C209.96 33.9377 209.756 34.017 209.507 34.017C209.258 34.017 209.048 33.9377 208.878 33.779C208.719 33.609 208.64 33.3993 208.64 33.15V32.521C208.243 32.997 207.762 33.3767 207.195 33.66C206.64 33.932 206.028 34.068 205.359 34.068ZM205.699 32.538C206.277 32.538 206.793 32.402 207.246 32.13C207.699 31.8467 208.056 31.467 208.317 30.991C208.578 30.5037 208.708 29.9597 208.708 29.359C208.708 28.747 208.578 28.203 208.317 27.727C208.056 27.2397 207.699 26.86 207.246 26.588C206.793 26.3047 206.277 26.163 205.699 26.163C205.132 26.163 204.617 26.3047 204.152 26.588C203.699 26.86 203.336 27.2397 203.064 27.727C202.803 28.203 202.673 28.747 202.673 29.359C202.673 29.9597 202.803 30.5037 203.064 30.991C203.336 31.467 203.699 31.8467 204.152 32.13C204.617 32.402 205.132 32.538 205.699 32.538ZM216.134 34.136C215.318 34.136 214.592 34.0113 213.958 33.762C213.334 33.5127 212.824 33.2067 212.428 32.844C212.246 32.674 212.156 32.4757 212.156 32.249C212.156 32.011 212.252 31.8183 212.445 31.671C212.615 31.535 212.819 31.4783 213.057 31.501C213.306 31.5123 213.516 31.5973 213.686 31.756C213.958 31.994 214.298 32.198 214.706 32.368C215.114 32.5267 215.584 32.606 216.117 32.606C216.74 32.606 217.233 32.4757 217.596 32.215C217.97 31.943 218.157 31.5973 218.157 31.178C218.157 30.804 218.021 30.5093 217.749 30.294C217.488 30.0673 217.159 29.9483 216.763 29.937H215.794C215.544 29.937 215.335 29.869 215.165 29.733C214.995 29.597 214.91 29.4327 214.91 29.24C214.91 29.0473 214.995 28.8887 215.165 28.764C215.335 28.6393 215.544 28.577 215.794 28.577H216.746C217.12 28.5543 217.397 28.4297 217.579 28.203C217.771 27.9763 217.868 27.693 217.868 27.353C217.868 26.979 217.709 26.6843 217.392 26.469C217.074 26.2537 216.615 26.146 216.015 26.146C215.006 26.146 214.235 26.4123 213.703 26.945C213.521 27.1263 213.323 27.2283 213.108 27.251C212.904 27.2623 212.705 27.1943 212.513 27.047C212.365 26.9337 212.297 26.7693 212.309 26.554C212.331 26.3387 212.428 26.1403 212.598 25.959C212.96 25.5623 213.448 25.2393 214.06 24.99C214.672 24.7407 215.312 24.616 215.981 24.616C216.672 24.616 217.284 24.735 217.817 24.973C218.349 25.211 218.769 25.5283 219.075 25.925C219.381 26.3217 219.534 26.758 219.534 27.234C219.534 27.7327 219.375 28.152 219.058 28.492C218.74 28.8207 218.349 29.0417 217.885 29.155C218.451 29.2683 218.916 29.5177 219.279 29.903C219.641 30.2883 219.823 30.7417 219.823 31.263C219.823 31.807 219.658 32.2943 219.33 32.725C219.012 33.1557 218.576 33.5013 218.021 33.762C217.465 34.0113 216.836 34.136 216.134 34.136ZM222.82 34C222.571 34 222.361 33.9207 222.191 33.762C222.032 33.592 221.953 33.3823 221.953 33.133V25.551C221.976 25.3017 222.066 25.0977 222.225 24.939C222.384 24.7803 222.582 24.701 222.82 24.701H222.837H227.087C227.62 24.701 228.09 24.8087 228.498 25.024C228.917 25.228 229.246 25.517 229.484 25.891C229.722 26.2537 229.841 26.673 229.841 27.149C229.841 27.591 229.722 27.9877 229.484 28.339C229.257 28.679 228.951 28.9397 228.566 29.121C229.065 29.3363 229.456 29.6367 229.739 30.022C230.034 30.4073 230.181 30.855 230.181 31.365C230.181 31.875 230.045 32.3283 229.773 32.725C229.501 33.1217 229.121 33.4333 228.634 33.66C228.158 33.8867 227.608 34 226.985 34H222.82ZM227.087 26.299H223.687V28.492H227.257C227.54 28.492 227.773 28.3843 227.954 28.169C228.135 27.9423 228.226 27.659 228.226 27.319C228.226 27.0243 228.118 26.7807 227.903 26.588C227.688 26.3953 227.416 26.299 227.087 26.299ZM223.687 32.385H226.985C227.438 32.385 227.807 32.2773 228.09 32.062C228.373 31.8353 228.515 31.5463 228.515 31.195C228.515 30.821 228.373 30.515 228.09 30.277C227.807 30.039 227.438 29.92 226.985 29.92H223.687V32.385ZM236.222 34.085C235.44 34.085 234.738 33.9207 234.114 33.592C233.502 33.252 233.015 32.759 232.652 32.113C232.301 31.467 232.125 30.6737 232.125 29.733V25.551C232.125 25.3017 232.205 25.0977 232.363 24.939C232.533 24.769 232.743 24.684 232.992 24.684C233.242 24.684 233.446 24.769 233.604 24.939C233.774 25.0977 233.859 25.3017 233.859 25.551V29.733C233.859 30.6963 234.114 31.4047 234.624 31.858C235.146 32.3 235.792 32.521 236.562 32.521C237.05 32.521 237.48 32.4247 237.854 32.232C238.24 32.0393 238.546 31.7787 238.772 31.45C238.999 31.1213 239.112 30.753 239.112 30.345V25.551C239.112 25.2903 239.192 25.0807 239.35 24.922C239.52 24.7633 239.73 24.684 239.979 24.684C240.24 24.684 240.45 24.7633 240.608 24.922C240.767 25.0807 240.846 25.2903 240.846 25.551V33.133C240.846 33.3823 240.767 33.592 240.608 33.762C240.45 33.9207 240.24 34 239.979 34C239.73 34 239.52 33.9207 239.35 33.762C239.192 33.592 239.112 33.3823 239.112 33.133V32.946C238.761 33.2973 238.336 33.575 237.837 33.779C237.339 33.983 236.8 34.085 236.222 34.085ZM244.767 34C244.518 34 244.308 33.9207 244.138 33.762C243.979 33.592 243.9 33.3823 243.9 33.133V25.551C243.923 25.3017 244.013 25.0977 244.172 24.939C244.331 24.7803 244.529 24.701 244.767 24.701H244.784H249.034C249.567 24.701 250.037 24.8087 250.445 25.024C250.864 25.228 251.193 25.517 251.431 25.891C251.669 26.2537 251.788 26.673 251.788 27.149C251.788 27.591 251.669 27.9877 251.431 28.339C251.204 28.679 250.898 28.9397 250.513 29.121C251.012 29.3363 251.403 29.6367 251.686 30.022C251.981 30.4073 252.128 30.855 252.128 31.365C252.128 31.875 251.992 32.3283 251.72 32.725C251.448 33.1217 251.068 33.4333 250.581 33.66C250.105 33.8867 249.555 34 248.932 34H244.767ZM249.034 26.299H245.634V28.492H249.204C249.487 28.492 249.72 28.3843 249.901 28.169C250.082 27.9423 250.173 27.659 250.173 27.319C250.173 27.0243 250.065 26.7807 249.85 26.588C249.635 26.3953 249.363 26.299 249.034 26.299ZM245.634 32.385H248.932C249.385 32.385 249.754 32.2773 250.037 32.062C250.32 31.8353 250.462 31.5463 250.462 31.195C250.462 30.821 250.32 30.515 250.037 30.277C249.754 30.039 249.385 29.92 248.932 29.92H245.634V32.385ZM258.135 34.068C257.308 34.068 256.566 33.864 255.908 33.456C255.251 33.0367 254.73 32.4757 254.344 31.773C253.97 31.059 253.783 30.2543 253.783 29.359C253.783 28.4637 253.987 27.659 254.395 26.945C254.815 26.231 255.376 25.67 256.078 25.262C256.792 24.8427 257.591 24.633 258.475 24.633C259.359 24.633 260.153 24.8427 260.855 25.262C261.558 25.67 262.113 26.231 262.521 26.945C262.941 27.659 263.15 28.4637 263.15 29.359V33.15C263.15 33.3993 263.065 33.609 262.895 33.779C262.737 33.9377 262.533 34.017 262.283 34.017C262.034 34.017 261.824 33.9377 261.654 33.779C261.496 33.609 261.416 33.3993 261.416 33.15V32.521C261.02 32.997 260.538 33.3767 259.971 33.66C259.416 33.932 258.804 34.068 258.135 34.068ZM258.475 32.538C259.053 32.538 259.569 32.402 260.022 32.13C260.476 31.8467 260.833 31.467 261.093 30.991C261.354 30.5037 261.484 29.9597 261.484 29.359C261.484 28.747 261.354 28.203 261.093 27.727C260.833 27.2397 260.476 26.86 260.022 26.588C259.569 26.3047 259.053 26.163 258.475 26.163C257.909 26.163 257.393 26.3047 256.928 26.588C256.475 26.86 256.112 27.2397 255.84 27.727C255.58 28.203 255.449 28.747 255.449 29.359C255.449 29.9597 255.58 30.5037 255.84 30.991C256.112 31.467 256.475 31.8467 256.928 32.13C257.393 32.402 257.909 32.538 258.475 32.538ZM266.598 34.017C266.349 34.017 266.139 33.9377 265.969 33.779C265.811 33.609 265.731 33.3993 265.731 33.15V25.585C265.731 25.3243 265.811 25.1147 265.969 24.956C266.139 24.7973 266.349 24.718 266.598 24.718C266.859 24.718 267.069 24.7973 267.227 24.956C267.386 25.1147 267.465 25.313 267.465 25.551C267.76 25.2563 268.111 25.0297 268.519 24.871C268.927 24.701 269.369 24.616 269.845 24.616C271.035 24.616 271.931 25.0637 272.531 25.959C272.86 25.5397 273.279 25.211 273.789 24.973C274.299 24.735 274.872 24.616 275.506 24.616C276.481 24.616 277.274 24.9333 277.886 25.568C278.498 26.2027 278.804 27.1093 278.804 28.288V33.15C278.804 33.3993 278.725 33.609 278.566 33.779C278.408 33.9377 278.198 34.017 277.937 34.017C277.688 34.017 277.478 33.9377 277.308 33.779C277.15 33.609 277.07 33.3993 277.07 33.15V28.288C277.07 27.574 276.895 27.047 276.543 26.707C276.192 26.3557 275.733 26.18 275.166 26.18C274.577 26.18 274.09 26.384 273.704 26.792C273.33 27.2 273.143 27.7213 273.143 28.356V33.15C273.143 33.3993 273.064 33.609 272.905 33.779C272.747 33.9377 272.537 34.017 272.276 34.017C272.027 34.017 271.817 33.9377 271.647 33.779C271.489 33.609 271.409 33.3993 271.409 33.15V28.288C271.409 27.574 271.234 27.047 270.882 26.707C270.531 26.3557 270.072 26.18 269.505 26.18C268.916 26.18 268.429 26.384 268.043 26.792C267.658 27.2 267.465 27.7213 267.465 28.356V33.15C267.465 33.3993 267.386 33.609 267.227 33.779C267.069 33.9377 266.859 34.017 266.598 34.017ZM285.884 34.153C285.034 34.153 284.292 34 283.657 33.694C283.034 33.388 282.547 32.9573 282.195 32.402C281.855 31.8353 281.685 31.1723 281.685 30.413V25.551C281.708 25.313 281.799 25.1147 281.957 24.956C282.127 24.786 282.326 24.701 282.552 24.701C282.802 24.701 283.006 24.786 283.164 24.956C283.334 25.1147 283.419 25.3187 283.419 25.568V27.472H286.207C286.944 27.472 287.601 27.6023 288.179 27.863C288.769 28.1123 289.233 28.4807 289.573 28.968C289.913 29.444 290.083 30.0163 290.083 30.685C290.083 31.3537 289.908 31.9487 289.556 32.47C289.216 32.9913 288.735 33.405 288.111 33.711C287.488 34.0057 286.746 34.153 285.884 34.153ZM285.867 32.555C286.593 32.555 287.199 32.402 287.686 32.096C288.174 31.7787 288.417 31.3083 288.417 30.685C288.417 30.0957 288.208 29.6593 287.788 29.376C287.369 29.0813 286.842 28.934 286.207 28.934H283.419V30.379C283.419 30.787 283.527 31.1553 283.742 31.484C283.958 31.8127 284.247 32.0733 284.609 32.266C284.983 32.4587 285.403 32.555 285.867 32.555ZM300.842 24.718C301.193 24.718 301.454 24.905 301.624 25.279L305.126 32.878C305.228 33.1047 305.239 33.3087 305.16 33.49C305.081 33.66 304.945 33.7903 304.752 33.881C304.253 34.1077 303.885 33.9943 303.647 33.541L300.876 27.251L298.02 33.541C297.918 33.7563 297.765 33.898 297.561 33.966C297.368 34.0227 297.153 33.9943 296.915 33.881C296.7 33.779 296.547 33.643 296.456 33.473C296.377 33.303 296.394 33.1047 296.507 32.878L300.026 25.279C300.196 24.905 300.468 24.718 300.842 24.718ZM311.245 34.085C310.463 34.085 309.76 33.9207 309.137 33.592C308.525 33.252 308.037 32.759 307.675 32.113C307.323 31.467 307.148 30.6737 307.148 29.733V25.551C307.148 25.3017 307.227 25.0977 307.386 24.939C307.556 24.769 307.765 24.684 308.015 24.684C308.264 24.684 308.468 24.769 308.627 24.939C308.797 25.0977 308.882 25.3017 308.882 25.551V29.733C308.882 30.6963 309.137 31.4047 309.647 31.858C310.168 32.3 310.814 32.521 311.585 32.521C312.072 32.521 312.503 32.4247 312.877 32.232C313.262 32.0393 313.568 31.7787 313.795 31.45C314.021 31.1213 314.135 30.753 314.135 30.345V25.551C314.135 25.2903 314.214 25.0807 314.373 24.922C314.543 24.7633 314.752 24.684 315.002 24.684C315.262 24.684 315.472 24.7633 315.631 24.922C315.789 25.0807 315.869 25.2903 315.869 25.551V33.133C315.869 33.3823 315.789 33.592 315.631 33.762C315.472 33.9207 315.262 34 315.002 34C314.752 34 314.543 33.9207 314.373 33.762C314.214 33.592 314.135 33.3823 314.135 33.133V32.946C313.783 33.2973 313.358 33.575 312.86 33.779C312.361 33.983 311.823 34.085 311.245 34.085ZM321.745 31.212C320.929 31.212 320.254 31.025 319.722 30.651C319.189 30.277 318.792 29.767 318.532 29.121C318.282 28.4637 318.158 27.71 318.158 26.86V25.568C318.158 25.3073 318.237 25.0977 318.396 24.939C318.566 24.7803 318.775 24.701 319.025 24.701C319.285 24.701 319.495 24.7803 319.654 24.939C319.812 25.0977 319.892 25.3073 319.892 25.568V26.86C319.892 27.676 320.05 28.3447 320.368 28.866C320.696 29.3873 321.269 29.648 322.085 29.648C322.731 29.648 323.258 29.5403 323.666 29.325C324.085 29.1097 324.295 28.832 324.295 28.492V25.568C324.295 25.3073 324.374 25.0977 324.533 24.939C324.703 24.7803 324.912 24.701 325.162 24.701C325.422 24.701 325.632 24.7803 325.791 24.939C325.949 25.0977 326.029 25.3073 326.029 25.568V33.133C326.029 33.3823 325.949 33.592 325.791 33.762C325.632 33.9207 325.422 34 325.162 34C324.912 34 324.703 33.9207 324.533 33.762C324.374 33.592 324.295 33.3823 324.295 33.133V30.396C323.989 30.6567 323.615 30.8607 323.173 31.008C322.742 31.144 322.266 31.212 321.745 31.212ZM329.916 34C329.666 34 329.462 33.9207 329.304 33.762C329.156 33.592 329.083 33.3823 329.083 33.133V25.568C329.083 25.3073 329.156 25.0977 329.304 24.939C329.462 24.7803 329.666 24.701 329.916 24.701C330.176 24.701 330.386 24.7803 330.545 24.939C330.703 25.0977 330.783 25.3073 330.783 25.568V28.407H336.036V25.568C336.036 25.3073 336.115 25.0977 336.274 24.939C336.444 24.7803 336.653 24.701 336.903 24.701C337.163 24.701 337.367 24.7803 337.515 24.939C337.662 25.0977 337.736 25.3073 337.736 25.568V33.133C337.736 33.3823 337.662 33.592 337.515 33.762C337.367 33.9207 337.163 34 336.903 34C336.653 34 336.444 33.9207 336.274 33.762C336.115 33.592 336.036 33.3823 336.036 33.133V29.937H330.783V33.133C330.783 33.3823 330.703 33.592 330.545 33.762C330.386 33.9207 330.176 34 329.916 34ZM344.696 34.17C343.937 34.17 343.263 34.0113 342.673 33.694C342.084 33.3653 341.625 32.9177 341.296 32.351C340.968 31.7843 340.803 31.1383 340.803 30.413V25.551C340.826 25.3017 340.917 25.0977 341.075 24.939C341.234 24.7803 341.432 24.701 341.67 24.701C341.931 24.701 342.141 24.7803 342.299 24.939C342.458 25.0977 342.537 25.3073 342.537 25.568V27.472H344.866C345.58 27.472 346.209 27.5967 346.753 27.846C347.309 28.0953 347.739 28.458 348.045 28.934C348.363 29.41 348.521 29.9937 348.521 30.685C348.521 31.4217 348.357 32.0507 348.028 32.572C347.711 33.0933 347.263 33.49 346.685 33.762C346.107 34.034 345.444 34.17 344.696 34.17ZM350.867 34C350.618 34 350.408 33.9207 350.238 33.762C350.08 33.592 350 33.3823 350 33.133V25.568C350 25.3073 350.08 25.0977 350.238 24.939C350.408 24.7803 350.618 24.701 350.867 24.701C351.128 24.701 351.338 24.7803 351.496 24.939C351.655 25.0977 351.734 25.3073 351.734 25.568V33.133C351.734 33.3823 351.655 33.592 351.496 33.762C351.338 33.9207 351.128 34 350.867 34ZM344.696 32.555C345.331 32.555 345.847 32.402 346.243 32.096C346.651 31.7787 346.855 31.3083 346.855 30.685C346.855 30.0843 346.668 29.6423 346.294 29.359C345.92 29.0757 345.444 28.934 344.866 28.934H342.537V30.379C342.537 31.0137 342.736 31.535 343.132 31.943C343.54 32.351 344.062 32.555 344.696 32.555ZM358.709 34.085C357.927 34.085 357.224 33.9207 356.601 33.592C355.989 33.252 355.501 32.759 355.139 32.113C354.787 31.467 354.612 30.6737 354.612 29.733V25.551C354.612 25.3017 354.691 25.0977 354.85 24.939C355.02 24.769 355.229 24.684 355.479 24.684C355.728 24.684 355.932 24.769 356.091 24.939C356.261 25.0977 356.346 25.3017 356.346 25.551V29.733C356.346 30.6963 356.601 31.4047 357.111 31.858C357.632 32.3 358.278 32.521 359.049 32.521C359.536 32.521 359.967 32.4247 360.341 32.232C360.726 32.0393 361.032 31.7787 361.259 31.45C361.485 31.1213 361.599 30.753 361.599 30.345V25.551C361.599 25.2903 361.678 25.0807 361.837 24.922C362.007 24.7633 362.216 24.684 362.466 24.684C362.726 24.684 362.936 24.7633 363.095 24.922C363.253 25.0807 363.333 25.2903 363.333 25.551V33.133C363.333 33.3823 363.253 33.592 363.095 33.762C362.936 33.9207 362.726 34 362.466 34C362.216 34 362.007 33.9207 361.837 33.762C361.678 33.592 361.599 33.3823 361.599 33.133V32.946C361.247 33.2973 360.822 33.575 360.324 33.779C359.825 33.983 359.287 34.085 358.709 34.085ZM359.066 23.477C358.488 23.477 357.966 23.3807 357.502 23.188C357.037 22.984 356.669 22.712 356.397 22.372C356.125 22.0207 355.989 21.6297 355.989 21.199C355.989 20.961 356.062 20.7627 356.21 20.604C356.357 20.4453 356.538 20.366 356.754 20.366C356.98 20.366 357.162 20.4453 357.298 20.604C357.445 20.7627 357.519 20.961 357.519 21.199C357.519 21.4823 357.666 21.726 357.961 21.93C358.255 22.1227 358.624 22.219 359.066 22.219C359.508 22.219 359.876 22.1227 360.171 21.93C360.465 21.726 360.613 21.4823 360.613 21.199C360.613 20.961 360.686 20.7627 360.834 20.604C360.981 20.4453 361.162 20.366 361.378 20.366C361.604 20.366 361.786 20.4453 361.922 20.604C362.069 20.7627 362.143 20.961 362.143 21.199C362.143 21.6297 362.007 22.0207 361.735 22.372C361.463 22.712 361.094 22.984 360.63 23.188C360.176 23.3807 359.655 23.477 359.066 23.477ZM189.105 48.682L189.122 46.761C189.133 45.4237 189.502 44.1997 190.227 43.089C190.964 41.9783 192.103 41.0773 193.644 40.386L196.823 38.975C197.05 38.8843 197.254 38.873 197.435 38.941C197.616 38.9977 197.747 39.128 197.826 39.332C197.905 39.5473 197.922 39.7457 197.877 39.927C197.843 40.097 197.679 40.25 197.384 40.386L193.933 41.967C192.845 42.4657 192.023 43.0947 191.468 43.854C190.913 44.602 190.584 45.452 190.482 46.404C190.833 45.758 191.321 45.248 191.944 44.874C192.579 44.5 193.304 44.313 194.12 44.313C194.936 44.313 195.656 44.5 196.279 44.874C196.914 45.248 197.407 45.7637 197.758 46.421C198.121 47.067 198.302 47.8207 198.302 48.682C198.302 49.532 198.109 50.2913 197.724 50.96C197.339 51.6173 196.806 52.133 196.126 52.507C195.446 52.881 194.664 53.068 193.78 53.068C192.873 53.068 192.069 52.881 191.366 52.507C190.663 52.133 190.114 51.6173 189.717 50.96C189.32 50.2913 189.116 49.532 189.105 48.682ZM193.78 51.538C194.347 51.538 194.84 51.419 195.259 51.181C195.69 50.9317 196.024 50.5917 196.262 50.161C196.511 49.7303 196.636 49.2373 196.636 48.682C196.636 48.1267 196.511 47.6393 196.262 47.22C196.024 46.7893 195.69 46.455 195.259 46.217C194.84 45.9677 194.347 45.843 193.78 45.843C193.191 45.843 192.669 45.9677 192.216 46.217C191.763 46.455 191.406 46.7893 191.145 47.22C190.896 47.6393 190.771 48.1267 190.771 48.682C190.771 49.2373 190.896 49.7303 191.145 50.161C191.406 50.5917 191.763 50.9317 192.216 51.181C192.669 51.419 193.191 51.538 193.78 51.538ZM201.752 56.978C201.503 56.978 201.293 56.893 201.123 56.723C200.965 56.5643 200.885 56.3603 200.885 56.111V48.359C200.897 47.4637 201.106 46.659 201.514 45.945C201.922 45.231 202.478 44.67 203.18 44.262C203.883 43.8427 204.676 43.633 205.56 43.633C206.456 43.633 207.255 43.8427 207.957 44.262C208.66 44.67 209.215 45.231 209.623 45.945C210.043 46.659 210.252 47.4637 210.252 48.359C210.252 49.2543 210.06 50.059 209.674 50.773C209.3 51.4757 208.785 52.0367 208.127 52.456C207.47 52.864 206.728 53.068 205.9 53.068C205.232 53.068 204.614 52.932 204.047 52.66C203.492 52.3767 203.016 51.997 202.619 51.521V56.111C202.619 56.3603 202.54 56.5643 202.381 56.723C202.223 56.893 202.013 56.978 201.752 56.978ZM205.56 51.538C206.138 51.538 206.654 51.402 207.107 51.13C207.561 50.8467 207.918 50.467 208.178 49.991C208.45 49.5037 208.586 48.9597 208.586 48.359C208.586 47.747 208.45 47.203 208.178 46.727C207.918 46.2397 207.561 45.86 207.107 45.588C206.654 45.3047 206.138 45.163 205.56 45.163C204.994 45.163 204.478 45.3047 204.013 45.588C203.56 45.86 203.203 46.2397 202.942 46.727C202.682 47.203 202.551 47.747 202.551 48.359C202.551 48.9597 202.682 49.5037 202.942 49.991C203.203 50.467 203.56 50.8467 204.013 51.13C204.478 51.402 204.994 51.538 205.56 51.538ZM217.208 53.068C216.267 53.068 215.428 52.8697 214.692 52.473C213.966 52.065 213.394 51.5097 212.975 50.807C212.567 50.093 212.363 49.277 212.363 48.359C212.363 47.4297 212.555 46.6137 212.941 45.911C213.337 45.197 213.881 44.6417 214.573 44.245C215.264 43.837 216.057 43.633 216.953 43.633C217.837 43.633 218.596 43.8313 219.231 44.228C219.865 44.6133 220.347 45.1517 220.676 45.843C221.016 46.523 221.186 47.3107 221.186 48.206C221.186 48.4213 221.112 48.6027 220.965 48.75C220.817 48.886 220.63 48.954 220.404 48.954H213.944C214.068 49.736 214.425 50.3763 215.015 50.875C215.615 51.3623 216.346 51.606 217.208 51.606C217.559 51.606 217.916 51.5437 218.279 51.419C218.653 51.283 218.953 51.13 219.18 50.96C219.35 50.8353 219.531 50.773 219.724 50.773C219.928 50.7617 220.103 50.8183 220.251 50.943C220.443 51.113 220.545 51.3 220.557 51.504C220.568 51.708 220.477 51.8837 220.285 52.031C219.899 52.337 219.418 52.5863 218.84 52.779C218.273 52.9717 217.729 53.068 217.208 53.068ZM216.953 45.095C216.114 45.095 215.44 45.3273 214.93 45.792C214.42 46.2567 214.097 46.8573 213.961 47.594H219.622C219.52 46.8687 219.242 46.2737 218.789 45.809C218.335 45.333 217.723 45.095 216.953 45.095ZM224.23 53C223.981 53 223.777 52.9207 223.618 52.762C223.471 52.592 223.397 52.3823 223.397 52.133V44.568C223.397 44.3073 223.471 44.0977 223.618 43.939C223.777 43.7803 223.981 43.701 224.23 43.701C224.491 43.701 224.701 43.7803 224.859 43.939C225.018 44.0977 225.097 44.3073 225.097 44.568V47.407H230.35V44.568C230.35 44.3073 230.43 44.0977 230.588 43.939C230.758 43.7803 230.968 43.701 231.217 43.701C231.478 43.701 231.682 43.7803 231.829 43.939C231.977 44.0977 232.05 44.3073 232.05 44.568V52.133C232.05 52.3823 231.977 52.592 231.829 52.762C231.682 52.9207 231.478 53 231.217 53C230.968 53 230.758 52.9207 230.588 52.762C230.43 52.592 230.35 52.3823 230.35 52.133V48.937H225.097V52.133C225.097 52.3823 225.018 52.592 224.859 52.762C224.701 52.9207 224.491 53 224.23 53ZM238.994 53.068C238.144 53.068 237.39 52.8697 236.733 52.473C236.087 52.065 235.577 51.5097 235.203 50.807C234.829 50.093 234.642 49.277 234.642 48.359C234.642 47.4297 234.84 46.6137 235.237 45.911C235.645 45.197 236.2 44.6417 236.903 44.245C237.606 43.837 238.416 43.633 239.334 43.633C240.241 43.633 241.045 43.837 241.748 44.245C242.451 44.6417 243 45.197 243.397 45.911C243.805 46.6137 244.009 47.4297 244.009 48.359V52.031C244.009 52.9263 243.811 53.7367 243.414 54.462C243.017 55.1987 242.462 55.7823 241.748 56.213C241.045 56.6437 240.229 56.859 239.3 56.859C238.495 56.859 237.742 56.7003 237.039 56.383C236.336 56.0657 235.741 55.601 235.254 54.989C235.107 54.7963 235.05 54.598 235.084 54.394C235.129 54.19 235.243 54.0257 235.424 53.901C235.628 53.765 235.838 53.7197 236.053 53.765C236.28 53.8103 236.461 53.9237 236.597 54.105C236.903 54.4903 237.288 54.7907 237.753 55.006C238.218 55.2213 238.745 55.329 239.334 55.329C239.878 55.329 240.377 55.1987 240.83 54.938C241.295 54.6773 241.663 54.292 241.935 53.782C242.207 53.272 242.343 52.6487 242.343 51.912V51.079C241.992 51.691 241.527 52.1783 240.949 52.541C240.371 52.8923 239.719 53.068 238.994 53.068ZM239.334 51.538C239.923 51.538 240.445 51.402 240.898 51.13C241.351 50.858 241.703 50.484 241.952 50.008C242.213 49.532 242.343 48.9823 242.343 48.359C242.343 47.7357 242.213 47.186 241.952 46.71C241.703 46.2227 241.351 45.843 240.898 45.571C240.445 45.299 239.923 45.163 239.334 45.163C238.745 45.163 238.223 45.299 237.77 45.571C237.317 45.843 236.96 46.2227 236.699 46.71C236.438 47.186 236.308 47.7357 236.308 48.359C236.308 48.9823 236.438 49.532 236.699 50.008C236.96 50.484 237.317 50.858 237.77 51.13C238.223 51.402 238.745 51.538 239.334 51.538Z" fill="white"/>
<path d="M190.346 87.017C190.097 87.017 189.898 86.9377 189.751 86.779C189.604 86.609 189.53 86.3993 189.53 86.15V78.568C189.53 78.3073 189.604 78.0977 189.751 77.939C189.898 77.7803 190.097 77.701 190.346 77.701C190.607 77.701 190.816 77.7803 190.975 77.939C191.145 78.0977 191.23 78.3073 191.23 78.568V81.407H192.522L195.599 77.973C195.746 77.8143 195.95 77.7237 196.211 77.701C196.483 77.6783 196.693 77.735 196.84 77.871C197.01 78.0297 197.106 78.211 197.129 78.415C197.152 78.6077 197.089 78.7833 196.942 78.942L193.865 82.24L197.129 85.742C197.276 85.8893 197.35 86.065 197.35 86.269C197.35 86.4617 197.259 86.6373 197.078 86.796C196.931 86.932 196.721 87 196.449 87C196.188 86.9887 195.984 86.9093 195.837 86.762L192.335 83.005H191.23V86.15C191.23 86.3993 191.145 86.609 190.975 86.779C190.816 86.9377 190.607 87.017 190.346 87.017ZM200.341 87.017C200.092 87.017 199.882 86.9377 199.712 86.779C199.554 86.609 199.474 86.3993 199.474 86.15V78.585C199.474 78.3243 199.554 78.1147 199.712 77.956C199.882 77.7973 200.092 77.718 200.341 77.718C200.602 77.718 200.812 77.7973 200.97 77.956C201.129 78.1147 201.208 78.313 201.208 78.551C201.503 78.2563 201.854 78.0297 202.262 77.871C202.67 77.701 203.112 77.616 203.588 77.616C204.778 77.616 205.674 78.0637 206.274 78.959C206.603 78.5397 207.022 78.211 207.532 77.973C208.042 77.735 208.615 77.616 209.249 77.616C210.224 77.616 211.017 77.9333 211.629 78.568C212.241 79.2027 212.547 80.1093 212.547 81.288V86.15C212.547 86.3993 212.468 86.609 212.309 86.779C212.151 86.9377 211.941 87.017 211.68 87.017C211.431 87.017 211.221 86.9377 211.051 86.779C210.893 86.609 210.813 86.3993 210.813 86.15V81.288C210.813 80.574 210.638 80.047 210.286 79.707C209.935 79.3557 209.476 79.18 208.909 79.18C208.32 79.18 207.833 79.384 207.447 79.792C207.073 80.2 206.886 80.7213 206.886 81.356V86.15C206.886 86.3993 206.807 86.609 206.648 86.779C206.49 86.9377 206.28 87.017 206.019 87.017C205.77 87.017 205.56 86.9377 205.39 86.779C205.232 86.609 205.152 86.3993 205.152 86.15V81.288C205.152 80.574 204.977 80.047 204.625 79.707C204.274 79.3557 203.815 79.18 203.248 79.18C202.659 79.18 202.172 79.384 201.786 79.792C201.401 80.2 201.208 80.7213 201.208 81.356V86.15C201.208 86.3993 201.129 86.609 200.97 86.779C200.812 86.9377 200.602 87.017 200.341 87.017ZM219.644 87.068C218.726 87.068 217.916 86.8697 217.213 86.473C216.511 86.065 215.955 85.5097 215.547 84.807C215.151 84.093 214.952 83.277 214.952 82.359C214.952 81.4297 215.151 80.6137 215.547 79.911C215.955 79.197 216.511 78.6417 217.213 78.245C217.916 77.837 218.726 77.633 219.644 77.633C220.551 77.633 221.356 77.837 222.058 78.245C222.761 78.6417 223.311 79.197 223.707 79.911C224.115 80.6137 224.319 81.4297 224.319 82.359C224.319 83.277 224.121 84.093 223.724 84.807C223.328 85.5097 222.778 86.065 222.075 86.473C221.373 86.8697 220.562 87.068 219.644 87.068ZM219.644 85.538C220.234 85.538 220.755 85.402 221.208 85.13C221.662 84.858 222.013 84.484 222.262 84.008C222.523 83.532 222.653 82.9823 222.653 82.359C222.653 81.7357 222.523 81.186 222.262 80.71C222.013 80.2227 221.662 79.843 221.208 79.571C220.755 79.299 220.234 79.163 219.644 79.163C219.055 79.163 218.534 79.299 218.08 79.571C217.627 79.843 217.27 80.2227 217.009 80.71C216.749 81.186 216.618 81.7357 216.618 82.359C216.618 82.9823 216.749 83.532 217.009 84.008C217.27 84.484 217.627 84.858 218.08 85.13C218.534 85.402 219.055 85.538 219.644 85.538ZM232.748 87C232.498 87 232.289 86.9207 232.119 86.762C231.96 86.592 231.881 86.3823 231.881 86.133V78.551C231.903 78.3017 231.994 78.0977 232.153 77.939C232.311 77.7803 232.51 77.701 232.748 77.701H232.765H237.015C237.547 77.701 238.018 77.8087 238.426 78.024C238.845 78.228 239.174 78.517 239.412 78.891C239.65 79.2537 239.769 79.673 239.769 80.149C239.769 80.591 239.65 80.9877 239.412 81.339C239.185 81.679 238.879 81.9397 238.494 82.121C238.992 82.3363 239.383 82.6367 239.667 83.022C239.961 83.4073 240.109 83.855 240.109 84.365C240.109 84.875 239.973 85.3283 239.701 85.725C239.429 86.1217 239.049 86.4333 238.562 86.66C238.086 86.8867 237.536 87 236.913 87H232.748ZM237.015 79.299H233.615V81.492H237.185C237.468 81.492 237.7 81.3843 237.882 81.169C238.063 80.9423 238.154 80.659 238.154 80.319C238.154 80.0243 238.046 79.7807 237.831 79.588C237.615 79.3953 237.343 79.299 237.015 79.299ZM233.615 85.385H236.913C237.366 85.385 237.734 85.2773 238.018 85.062C238.301 84.8353 238.443 84.5463 238.443 84.195C238.443 83.821 238.301 83.515 238.018 83.277C237.734 83.039 237.366 82.92 236.913 82.92H233.615V85.385ZM246.609 87.068C245.668 87.068 244.83 86.8697 244.093 86.473C243.368 86.065 242.795 85.5097 242.376 84.807C241.968 84.093 241.764 83.277 241.764 82.359C241.764 81.4297 241.957 80.6137 242.342 79.911C242.739 79.197 243.283 78.6417 243.974 78.245C244.665 77.837 245.459 77.633 246.354 77.633C247.238 77.633 247.997 77.8313 248.632 78.228C249.267 78.6133 249.748 79.1517 250.077 79.843C250.417 80.523 250.587 81.3107 250.587 82.206C250.587 82.4213 250.513 82.6027 250.366 82.75C250.219 82.886 250.032 82.954 249.805 82.954H243.345C243.47 83.736 243.827 84.3763 244.416 84.875C245.017 85.3623 245.748 85.606 246.609 85.606C246.96 85.606 247.317 85.5437 247.68 85.419C248.054 85.283 248.354 85.13 248.581 84.96C248.751 84.8353 248.932 84.773 249.125 84.773C249.329 84.7617 249.505 84.8183 249.652 84.943C249.845 85.113 249.947 85.3 249.958 85.504C249.969 85.708 249.879 85.8837 249.686 86.031C249.301 86.337 248.819 86.5863 248.241 86.779C247.674 86.9717 247.13 87.068 246.609 87.068ZM246.354 79.095C245.515 79.095 244.841 79.3273 244.331 79.792C243.821 80.2567 243.498 80.8573 243.362 81.594H249.023C248.921 80.8687 248.643 80.2737 248.19 79.809C247.737 79.333 247.125 79.095 246.354 79.095ZM256.343 87.068C255.493 87.068 254.739 86.8697 254.082 86.473C253.436 86.065 252.926 85.5097 252.552 84.807C252.178 84.093 251.991 83.277 251.991 82.359C251.991 81.4297 252.189 80.6137 252.586 79.911C252.994 79.197 253.549 78.6417 254.252 78.245C254.954 77.837 255.765 77.633 256.683 77.633C257.589 77.633 258.394 77.837 259.097 78.245C259.799 78.6417 260.349 79.197 260.746 79.911C261.154 80.6137 261.358 81.4297 261.358 82.359V86.031C261.358 86.9263 261.159 87.7367 260.763 88.462C260.366 89.1987 259.811 89.7823 259.097 90.213C258.394 90.6437 257.578 90.859 256.649 90.859C255.844 90.859 255.09 90.7003 254.388 90.383C253.685 90.0657 253.09 89.601 252.603 88.989C252.455 88.7963 252.399 88.598 252.433 88.394C252.478 88.19 252.591 88.0257 252.773 87.901C252.977 87.765 253.186 87.7197 253.402 87.765C253.628 87.8103 253.81 87.9237 253.946 88.105C254.252 88.4903 254.637 88.7907 255.102 89.006C255.566 89.2213 256.093 89.329 256.683 89.329C257.227 89.329 257.725 89.1987 258.179 88.938C258.643 88.6773 259.012 88.292 259.284 87.782C259.556 87.272 259.692 86.6487 259.692 85.912V85.079C259.34 85.691 258.876 86.1783 258.298 86.541C257.72 86.8923 257.068 87.068 256.343 87.068ZM256.683 85.538C257.272 85.538 257.793 85.402 258.247 85.13C258.7 84.858 259.051 84.484 259.301 84.008C259.561 83.532 259.692 82.9823 259.692 82.359C259.692 81.7357 259.561 81.186 259.301 80.71C259.051 80.2227 258.7 79.843 258.247 79.571C257.793 79.299 257.272 79.163 256.683 79.163C256.093 79.163 255.572 79.299 255.119 79.571C254.665 79.843 254.308 80.2227 254.048 80.71C253.787 81.186 253.657 81.7357 253.657 82.359C253.657 82.9823 253.787 83.532 254.048 84.008C254.308 84.484 254.665 84.858 255.119 85.13C255.572 85.402 256.093 85.538 256.683 85.538ZM268.307 87.068C267.367 87.068 266.528 86.8697 265.791 86.473C265.066 86.065 264.494 85.5097 264.074 84.807C263.666 84.093 263.462 83.277 263.462 82.359C263.462 81.4297 263.655 80.6137 264.04 79.911C264.437 79.197 264.981 78.6417 265.672 78.245C266.364 77.837 267.157 77.633 268.052 77.633C268.936 77.633 269.696 77.8313 270.33 78.228C270.965 78.6133 271.447 79.1517 271.775 79.843C272.115 80.523 272.285 81.3107 272.285 82.206C272.285 82.4213 272.212 82.6027 272.064 82.75C271.917 82.886 271.73 82.954 271.503 82.954H265.043C265.168 83.736 265.525 84.3763 266.114 84.875C266.715 85.3623 267.446 85.606 268.307 85.606C268.659 85.606 269.016 85.5437 269.378 85.419C269.752 85.283 270.053 85.13 270.279 84.96C270.449 84.8353 270.631 84.773 270.823 84.773C271.027 84.7617 271.203 84.8183 271.35 84.943C271.543 85.113 271.645 85.3 271.656 85.504C271.668 85.708 271.577 85.8837 271.384 86.031C270.999 86.337 270.517 86.5863 269.939 86.779C269.373 86.9717 268.829 87.068 268.307 87.068ZM268.052 79.095C267.214 79.095 266.539 79.3273 266.029 79.792C265.519 80.2567 265.196 80.8573 265.06 81.594H270.721C270.619 80.8687 270.342 80.2737 269.888 79.809C269.435 79.333 268.823 79.095 268.052 79.095ZM275.364 87.017C275.114 87.017 274.905 86.9377 274.735 86.779C274.576 86.609 274.497 86.3993 274.497 86.15V78.585C274.497 78.3243 274.576 78.1147 274.735 77.956C274.905 77.7973 275.114 77.718 275.364 77.718C275.624 77.718 275.834 77.7973 275.993 77.956C276.151 78.1147 276.231 78.313 276.231 78.551C276.525 78.2563 276.877 78.0297 277.285 77.871C277.693 77.701 278.135 77.616 278.611 77.616C279.801 77.616 280.696 78.0637 281.297 78.959C281.625 78.5397 282.045 78.211 282.555 77.973C283.065 77.735 283.637 77.616 284.272 77.616C285.246 77.616 286.04 77.9333 286.652 78.568C287.264 79.2027 287.57 80.1093 287.57 81.288V86.15C287.57 86.3993 287.49 86.609 287.332 86.779C287.173 86.9377 286.963 87.017 286.703 87.017C286.453 87.017 286.244 86.9377 286.074 86.779C285.915 86.609 285.836 86.3993 285.836 86.15V81.288C285.836 80.574 285.66 80.047 285.309 79.707C284.957 79.3557 284.498 79.18 283.932 79.18C283.342 79.18 282.855 79.384 282.47 79.792C282.096 80.2 281.909 80.7213 281.909 81.356V86.15C281.909 86.3993 281.829 86.609 281.671 86.779C281.512 86.9377 281.302 87.017 281.042 87.017C280.792 87.017 280.583 86.9377 280.413 86.779C280.254 86.609 280.175 86.3993 280.175 86.15V81.288C280.175 80.574 279.999 80.047 279.648 79.707C279.296 79.3557 278.837 79.18 278.271 79.18C277.681 79.18 277.194 79.384 276.809 79.792C276.423 80.2 276.231 80.7213 276.231 81.356V86.15C276.231 86.3993 276.151 86.609 275.993 86.779C275.834 86.9377 275.624 87.017 275.364 87.017ZM193.44 106.085C192.658 106.085 191.955 105.921 191.332 105.592C190.72 105.252 190.233 104.759 189.87 104.113C189.519 103.467 189.343 102.674 189.343 101.733V97.551C189.343 97.3017 189.422 97.0977 189.581 96.939C189.751 96.769 189.961 96.684 190.21 96.684C190.459 96.684 190.663 96.769 190.822 96.939C190.992 97.0977 191.077 97.3017 191.077 97.551V101.733C191.077 102.696 191.332 103.405 191.842 103.858C192.363 104.3 193.009 104.521 193.78 104.521C194.267 104.521 194.698 104.425 195.072 104.232C195.457 104.039 195.763 103.779 195.99 103.45C196.217 103.121 196.33 102.753 196.33 102.345V97.551C196.33 97.2903 196.409 97.0807 196.568 96.922C196.738 96.7633 196.948 96.684 197.197 96.684C197.458 96.684 197.667 96.7633 197.826 96.922C197.985 97.0807 198.064 97.2903 198.064 97.551V105.133C198.064 105.382 197.985 105.592 197.826 105.762C197.667 105.921 197.458 106 197.197 106C196.948 106 196.738 105.921 196.568 105.762C196.409 105.592 196.33 105.382 196.33 105.133V104.946C195.979 105.297 195.554 105.575 195.055 105.779C194.556 105.983 194.018 106.085 193.44 106.085ZM201.951 106C201.702 106 201.498 105.921 201.339 105.762C201.192 105.592 201.118 105.382 201.118 105.133V97.568C201.118 97.3073 201.192 97.0977 201.339 96.939C201.498 96.7803 201.702 96.701 201.951 96.701C202.212 96.701 202.421 96.7803 202.58 96.939C202.739 97.0977 202.818 97.3073 202.818 97.568V100.407H208.071V97.568C208.071 97.3073 208.15 97.0977 208.309 96.939C208.479 96.7803 208.689 96.701 208.938 96.701C209.199 96.701 209.403 96.7803 209.55 96.939C209.697 97.0977 209.771 97.3073 209.771 97.568V105.133C209.771 105.382 209.697 105.592 209.55 105.762C209.403 105.921 209.199 106 208.938 106C208.689 106 208.479 105.921 208.309 105.762C208.15 105.592 208.071 105.382 208.071 105.133V101.937H202.818V105.133C202.818 105.382 202.739 105.592 202.58 105.762C202.421 105.921 202.212 106 201.951 106ZM217.055 106.068C216.148 106.068 215.338 105.864 214.624 105.456C213.921 105.037 213.366 104.476 212.958 103.773C212.561 103.059 212.363 102.254 212.363 101.359C212.363 100.441 212.561 99.625 212.958 98.911C213.354 98.197 213.898 97.6417 214.59 97.245C215.281 96.837 216.074 96.633 216.97 96.633C218.307 96.633 219.418 97.143 220.302 98.163C220.46 98.3443 220.517 98.5313 220.472 98.724C220.426 98.9167 220.302 99.0867 220.098 99.234C219.939 99.3473 219.763 99.387 219.571 99.353C219.378 99.3077 219.202 99.2057 219.044 99.047C218.488 98.4577 217.797 98.163 216.97 98.163C216.097 98.163 215.389 98.4577 214.845 99.047C214.301 99.625 214.029 100.396 214.029 101.359C214.029 101.971 214.153 102.515 214.403 102.991C214.663 103.467 215.02 103.847 215.474 104.13C215.927 104.402 216.454 104.538 217.055 104.538C217.825 104.538 218.449 104.34 218.925 103.943C219.106 103.796 219.293 103.716 219.486 103.705C219.678 103.682 219.848 103.733 219.996 103.858C220.188 104.017 220.296 104.198 220.319 104.402C220.341 104.595 220.273 104.77 220.115 104.929C219.299 105.688 218.279 106.068 217.055 106.068ZM223.916 106.017C223.666 106.017 223.457 105.938 223.287 105.779C223.128 105.609 223.049 105.399 223.049 105.15V97.585C223.049 97.3243 223.128 97.1147 223.287 96.956C223.457 96.7973 223.666 96.718 223.916 96.718C224.176 96.718 224.386 96.7973 224.545 96.956C224.703 97.1147 224.783 97.313 224.783 97.551C225.077 97.2563 225.429 97.0297 225.837 96.871C226.245 96.701 226.687 96.616 227.163 96.616C228.353 96.616 229.248 97.0637 229.849 97.959C230.177 97.5397 230.597 97.211 231.107 96.973C231.617 96.735 232.189 96.616 232.824 96.616C233.798 96.616 234.592 96.9333 235.204 97.568C235.816 98.2027 236.122 99.1093 236.122 100.288V105.15C236.122 105.399 236.042 105.609 235.884 105.779C235.725 105.938 235.515 106.017 235.255 106.017C235.005 106.017 234.796 105.938 234.626 105.779C234.467 105.609 234.388 105.399 234.388 105.15V100.288C234.388 99.574 234.212 99.047 233.861 98.707C233.509 98.3557 233.05 98.18 232.484 98.18C231.894 98.18 231.407 98.384 231.022 98.792C230.648 99.2 230.461 99.7213 230.461 100.356V105.15C230.461 105.399 230.381 105.609 230.223 105.779C230.064 105.938 229.854 106.017 229.594 106.017C229.344 106.017 229.135 105.938 228.965 105.779C228.806 105.609 228.727 105.399 228.727 105.15V100.288C228.727 99.574 228.551 99.047 228.2 98.707C227.848 98.3557 227.389 98.18 226.823 98.18C226.233 98.18 225.746 98.384 225.361 98.792C224.975 99.2 224.783 99.7213 224.783 100.356V105.15C224.783 105.399 224.703 105.609 224.545 105.779C224.386 105.938 224.176 106.017 223.916 106.017ZM242.879 106.068C242.051 106.068 241.309 105.864 240.652 105.456C239.994 105.037 239.473 104.476 239.088 103.773C238.714 103.059 238.527 102.254 238.527 101.359C238.527 100.464 238.731 99.659 239.139 98.945C239.558 98.231 240.119 97.67 240.822 97.262C241.536 96.8427 242.335 96.633 243.219 96.633C244.103 96.633 244.896 96.8427 245.599 97.262C246.301 97.67 246.857 98.231 247.265 98.945C247.684 99.659 247.894 100.464 247.894 101.359V105.15C247.894 105.399 247.809 105.609 247.639 105.779C247.48 105.938 247.276 106.017 247.027 106.017C246.777 106.017 246.568 105.938 246.398 105.779C246.239 105.609 246.16 105.399 246.16 105.15V104.521C245.763 104.997 245.281 105.377 244.715 105.66C244.159 105.932 243.547 106.068 242.879 106.068ZM243.219 104.538C243.797 104.538 244.312 104.402 244.766 104.13C245.219 103.847 245.576 103.467 245.837 102.991C246.097 102.504 246.228 101.96 246.228 101.359C246.228 100.747 246.097 100.203 245.837 99.727C245.576 99.2397 245.219 98.86 244.766 98.588C244.312 98.3047 243.797 98.163 243.219 98.163C242.652 98.163 242.136 98.3047 241.672 98.588C241.218 98.86 240.856 99.2397 240.584 99.727C240.323 100.203 240.193 100.747 240.193 101.359C240.193 101.96 240.323 102.504 240.584 102.991C240.856 103.467 241.218 103.847 241.672 104.13C242.136 104.402 242.652 104.538 243.219 104.538ZM253.347 106.068C252.633 106.068 251.993 105.96 251.426 105.745C250.871 105.518 250.429 105.207 250.1 104.81C249.783 104.413 249.624 103.96 249.624 103.45C249.624 102.691 249.947 102.084 250.593 101.631C251.239 101.178 252.14 100.843 253.296 100.628C254.067 100.469 254.588 100.282 254.86 100.067C255.132 99.8403 255.268 99.5513 255.268 99.2C255.268 98.8373 255.087 98.571 254.724 98.401C254.362 98.2197 253.942 98.129 253.466 98.129C253.07 98.129 252.673 98.1913 252.276 98.316C251.891 98.4407 251.568 98.622 251.307 98.86C251.137 99.0187 250.95 99.1263 250.746 99.183C250.542 99.2397 250.378 99.2283 250.253 99.149C250.038 99.013 249.902 98.8373 249.845 98.622C249.8 98.4067 249.851 98.2083 249.998 98.027C250.338 97.6077 250.814 97.2733 251.426 97.024C252.05 96.7633 252.735 96.633 253.483 96.633C254.118 96.633 254.696 96.735 255.217 96.939C255.739 97.1317 256.152 97.4207 256.458 97.806C256.776 98.1913 256.934 98.6673 256.934 99.234C256.934 100.549 255.858 101.444 253.704 101.92C252.809 102.101 252.191 102.317 251.851 102.566C251.511 102.804 251.347 103.093 251.358 103.433C251.381 104.17 252.044 104.538 253.347 104.538C253.937 104.538 254.435 104.481 254.843 104.368C255.263 104.243 255.591 104.056 255.829 103.807C255.988 103.637 256.169 103.524 256.373 103.467C256.577 103.41 256.787 103.473 257.002 103.654C257.195 103.813 257.291 103.994 257.291 104.198C257.291 104.402 257.206 104.595 257.036 104.776C256.662 105.15 256.141 105.462 255.472 105.711C254.804 105.949 254.095 106.068 253.347 106.068ZM260.29 109.978C260.04 109.978 259.831 109.893 259.661 109.723C259.502 109.564 259.423 109.36 259.423 109.111V101.359C259.434 100.464 259.644 99.659 260.052 98.945C260.46 98.231 261.015 97.67 261.718 97.262C262.42 96.8427 263.214 96.633 264.098 96.633C264.993 96.633 265.792 96.8427 266.495 97.262C267.197 97.67 267.753 98.231 268.161 98.945C268.58 99.659 268.79 100.464 268.79 101.359C268.79 102.254 268.597 103.059 268.212 103.773C267.838 104.476 267.322 105.037 266.665 105.456C266.007 105.864 265.265 106.068 264.438 106.068C263.769 106.068 263.151 105.932 262.585 105.66C262.029 105.377 261.553 104.997 261.157 104.521V109.111C261.157 109.36 261.077 109.564 260.919 109.723C260.76 109.893 260.55 109.978 260.29 109.978ZM264.098 104.538C264.676 104.538 265.191 104.402 265.645 104.13C266.098 103.847 266.455 103.467 266.716 102.991C266.988 102.504 267.124 101.96 267.124 101.359C267.124 100.747 266.988 100.203 266.716 99.727C266.455 99.2397 266.098 98.86 265.645 98.588C265.191 98.3047 264.676 98.163 264.098 98.163C263.531 98.163 263.015 98.3047 262.551 98.588C262.097 98.86 261.74 99.2397 261.48 99.727C261.219 100.203 261.089 100.747 261.089 101.359C261.089 101.96 261.219 102.504 261.48 102.991C261.74 103.467 262.097 103.847 262.551 104.13C263.015 104.402 263.531 104.538 264.098 104.538ZM275.252 106.068C274.424 106.068 273.682 105.864 273.025 105.456C272.367 105.037 271.846 104.476 271.461 103.773C271.087 103.059 270.9 102.254 270.9 101.359C270.9 100.464 271.104 99.659 271.512 98.945C271.931 98.231 272.492 97.67 273.195 97.262C273.909 96.8427 274.708 96.633 275.592 96.633C276.476 96.633 277.269 96.8427 277.972 97.262C278.674 97.67 279.23 98.231 279.638 98.945C280.057 99.659 280.267 100.464 280.267 101.359V105.15C280.267 105.399 280.182 105.609 280.012 105.779C279.853 105.938 279.649 106.017 279.4 106.017C279.15 106.017 278.941 105.938 278.771 105.779C278.612 105.609 278.533 105.399 278.533 105.15V104.521C278.136 104.997 277.654 105.377 277.088 105.66C276.532 105.932 275.92 106.068 275.252 106.068ZM275.592 104.538C276.17 104.538 276.685 104.402 277.139 104.13C277.592 103.847 277.949 103.467 278.21 102.991C278.47 102.504 278.601 101.96 278.601 101.359C278.601 100.747 278.47 100.203 278.21 99.727C277.949 99.2397 277.592 98.86 277.139 98.588C276.685 98.3047 276.17 98.163 275.592 98.163C275.025 98.163 274.509 98.3047 274.045 98.588C273.591 98.86 273.229 99.2397 272.957 99.727C272.696 100.203 272.566 100.747 272.566 101.359C272.566 101.96 272.696 102.504 272.957 102.991C273.229 103.467 273.591 103.847 274.045 104.13C274.509 104.402 275.025 104.538 275.592 104.538ZM283.714 106C283.465 106 283.255 105.921 283.085 105.762C282.927 105.592 282.847 105.382 282.847 105.133V97.568C282.847 97.3073 282.927 97.0977 283.085 96.939C283.255 96.7803 283.465 96.701 283.714 96.701C284.077 96.701 284.383 96.8767 284.632 97.228L288.151 102.311L291.67 97.228C291.92 96.8767 292.226 96.701 292.588 96.701C292.849 96.701 293.059 96.7803 293.217 96.939C293.376 97.0977 293.455 97.3073 293.455 97.568V105.133C293.455 105.382 293.376 105.592 293.217 105.762C293.059 105.921 292.849 106 292.588 106C292.339 106 292.129 105.921 291.959 105.762C291.801 105.592 291.721 105.382 291.721 105.133V99.71L289.035 103.501C288.752 103.898 288.446 104.096 288.117 104.096C287.789 104.085 287.488 103.886 287.216 103.501L284.581 99.71V105.133C284.581 105.382 284.502 105.592 284.343 105.762C284.185 105.921 283.975 106 283.714 106Z" fill="white"/>
<defs>
<filter id="filter0_d" x="36" y="25" width="43" height="73" filterUnits="userSpaceOnUse" color-interpolation-filters="sRGB">
<feFlood flood-opacity="0" result="BackgroundImageFix"/>
<feColorMatrix in="SourceAlpha" type="matrix" values="0 0 0 0 0 0 0 0 0 0 0 0 0 0 0 0 0 0 127 0"/>
<feOffset dx="4" dy="4"/>
<feGaussianBlur stdDeviation="2"/>
<feColorMatrix type="matrix" values="0 0 0 0 1 0 0 0 0 0.96 0 0 0 0 0 0 0 0 1 0"/>
<feBlend mode="normal" in2="BackgroundImageFix" result="effect1_dropShadow"/>
<feBlend mode="normal" in="SourceGraphic" in2="effect1_dropShadow" result="shape"/>
</filter>
</defs>
</svg>
