<svg width="66" height="85" viewBox="0 0 66 85" fill="none" xmlns="http://www.w3.org/2000/svg">
<path d="M25.1307 10.8754C24.1979 9.55864 24.1201 6.72144 24.1979 5.46742C22.5187 4.52691 21.8658 2.17564 23.265 1H44.9536C46.6327 2.31671 44.7204 4.52691 44.0207 5.46742C44.2073 7.91275 43.3211 10.0916 42.8547 10.8754V32.272C44.254 37.2096 48.1252 48.3076 52.4163 53.1983C56.7074 58.089 61.8225 61.6629 63.8436 62.8385C65.8959 65.0957 64.7765 68.7167 63.8436 70.3626L61.2783 73.6544C56.925 77.1029 45.4666 84 34.4591 84C23.4516 84 14.4808 80.865 11.3713 79.2974C9.66108 78.0434 6.24074 76.4759 2.50929 70.3626C-0.150658 66.0048 1.2655 63.6223 2.50929 62.8385C2.89797 62.4466 5.82088 59.97 14.403 53.1983C22.9852 46.4266 25.1307 36.4259 25.1307 32.272V10.8754Z" fill="#2EB786" stroke="white" stroke-width="2"/>
</svg>
