<svg width="64" height="90" viewBox="0 0 64 90" fill="none" xmlns="http://www.w3.org/2000/svg">
<path d="M21.4298 82.341C24.424 83.863 24.5855 87.4145 24.2919 89H41.6847C41.6847 87.256 42.2131 83.4825 44.3266 82.341C46.4402 81.1994 46.7484 80.2006 44.1065 78.7736C37.0613 76.11 27.3741 76.8711 22.7508 78.298C20.7692 78.9096 18.4356 80.8189 21.4298 82.341Z" fill="#2479C8" stroke="white" stroke-width="2"/>
<path d="M37.6667 72H28.3333L26 68.651C29.1733 56.4031 29.3444 28.7817 29.0333 16.502C29.0333 14.668 29.7333 11 32.5333 11C35.3333 11 36.0333 14.668 36.0333 16.502C36.0333 46.1647 38.9111 63.6275 40 68.651L37.6667 72Z" fill="#2479C8" stroke="white" stroke-width="2"/>
<path d="M7.22179 5C3.61401 5 2.23735 2.33333 2 1H63C63 3.82353 59.677 4.84314 58.0156 5H7.22179Z" fill="#2479C8" stroke="white" stroke-width="2"/>
</svg>
