<svg width="18" height="15" viewBox="0 0 18 15" fill="none" xmlns="http://www.w3.org/2000/svg">
<path d="M16.9219 10.0938H16.0312V7.71875C16.031 7.48262 15.9371 7.25624 15.7701 7.08928C15.6031 6.92231 15.3768 6.82839 15.1406 6.82812H9.5V4.45312H10.6875C10.9236 4.45285 11.15 4.35893 11.317 4.19196C11.4839 4.025 11.5779 3.79862 11.5781 3.5625V0.890625C11.5779 0.654501 11.4839 0.428127 11.317 0.261162C11.15 0.0941967 10.9236 0.000274997 10.6875 0H7.125C6.88888 0.000274997 6.6625 0.0941967 6.49554 0.261162C6.32857 0.428127 6.23465 0.654501 6.23438 0.890625V3.5625C6.23465 3.79862 6.32857 4.025 6.49554 4.19196C6.6625 4.35893 6.88888 4.45285 7.125 4.45312H8.3125V6.82812H2.67188C2.43575 6.82839 2.20937 6.92231 2.0424 7.08928C1.87543 7.25624 1.78152 7.48262 1.78125 7.71875V10.0938H0.890625C0.654501 10.094 0.428127 10.1879 0.261162 10.3549C0.0941968 10.5219 0.000274997 10.7483 0 10.9844V13.6562C0.000274997 13.8924 0.0941968 14.1187 0.261162 14.2857C0.428127 14.4527 0.654501 14.5466 0.890625 14.5469H3.85938C4.0955 14.5466 4.32187 14.4527 4.48884 14.2857C4.6558 14.1187 4.74973 13.8924 4.75 13.6562V10.9844C4.74973 10.7483 4.6558 10.5219 4.48884 10.3549C4.32187 10.1879 4.0955 10.094 3.85938 10.0938H2.96875V8.01562H8.3125V10.0938H7.42188C7.18575 10.094 6.95938 10.1879 6.79241 10.3549C6.62545 10.5219 6.53152 10.7483 6.53125 10.9844V13.6562C6.53152 13.8924 6.62545 14.1187 6.79241 14.2857C6.95938 14.4527 7.18575 14.5466 7.42188 14.5469H10.3906C10.6267 14.5466 10.8531 14.4527 11.0201 14.2857C11.1871 14.1187 11.281 13.8924 11.2812 13.6562V10.9844C11.281 10.7483 11.1871 10.5219 11.0201 10.3549C10.8531 10.1879 10.6267 10.094 10.3906 10.0938H9.5V8.01562H14.8438V10.0938H13.9531C13.717 10.094 13.4906 10.1879 13.3237 10.3549C13.1567 10.5219 13.0628 10.7483 13.0625 10.9844V13.6562C13.0628 13.8924 13.1567 14.1187 13.3237 14.2857C13.4906 14.4527 13.717 14.5466 13.9531 14.5469H16.9219C17.158 14.5466 17.3844 14.4527 17.5513 14.2857C17.7183 14.1187 17.8122 13.8924 17.8125 13.6562V10.9844C17.8122 10.7483 17.7183 10.5219 17.5513 10.3549C17.3844 10.1879 17.158 10.094 16.9219 10.0938ZM7.42188 1.1875H10.3906V3.26562H7.42188V1.1875ZM3.5625 11.2812V13.3594H1.1875V11.2812H3.5625ZM10.0938 11.2812V13.3594H7.71875V11.2812H10.0938ZM16.625 13.3594H14.25V11.2812H16.625V13.3594Z" fill="black"/>
</svg>
